<svg width="212" height="69" viewBox="0 0 212 69" fill="none" xmlns="http://www.w3.org/2000/svg">
<mask id="path-1-outside-1_102_15" maskUnits="userSpaceOnUse" x="0.779297" y="0.883789" width="211" height="68" fill="black">
<rect fill="white" x="0.779297" y="0.883789" width="211" height="68"/>
<path d="M20.6758 17.8359C23.5176 17.8359 26.0078 18.5244 28.1465 19.9014C30.3145 21.2783 32.0869 22.9482 33.4639 24.9111C35.1045 23.0068 37.082 21.3516 39.3965 19.9453C41.7109 18.5098 44.2891 17.792 47.1309 17.792C50.8809 17.792 53.9863 18.8027 56.4473 20.8242C58.9375 22.8164 60.7832 25.4385 61.9844 28.6904C63.1855 31.9424 63.7861 35.458 63.7861 39.2373L63.8301 62.6602C63.8301 63.832 63.4053 64.8428 62.5557 65.6924C61.7061 66.542 60.666 66.9668 59.4355 66.9668C58.2051 66.9668 57.165 66.542 56.3154 65.6924C55.4658 64.8428 55.041 63.832 55.041 62.6602L54.9971 39.3252C54.9971 37.0986 54.792 35.0186 54.3818 33.085C53.9717 31.1221 53.2246 29.54 52.1406 28.3389C51.0566 27.1377 49.4893 26.5371 47.4385 26.5371C45.2705 26.5371 43.4102 27.1377 41.8574 28.3389C40.334 29.54 39.1621 31.1221 38.3418 33.085C37.5508 35.0186 37.1553 37.1133 37.1553 39.3691L37.1992 62.792C37.1992 63.9639 36.7598 64.9746 35.8809 65.8242C35.0312 66.6445 34.0059 67.0547 32.8047 67.0547C31.5742 67.0547 30.5342 66.6299 29.6846 65.7803C28.835 64.9307 28.4102 63.9199 28.4102 62.748V39.4131C28.4102 36.6592 27.9414 34.3301 27.0039 32.4258C26.0957 30.5215 24.9092 29.0859 23.4443 28.1191C22.0088 27.123 20.5293 26.625 19.0059 26.625C16.8379 26.625 14.8896 27.6357 13.1611 29.6572C11.4326 31.6787 10.5684 34.8281 10.5684 39.1055V62.792C10.5684 63.9639 10.1289 64.9746 9.25 65.8242C8.40039 66.6445 7.375 67.0547 6.17383 67.0547C4.97266 67.0547 3.93262 66.6299 3.05371 65.7803C2.2041 64.9307 1.7793 63.9199 1.7793 62.748V22.0986C1.7793 20.8975 1.99902 19.8867 2.43848 19.0664C2.90723 18.2168 3.75684 17.792 4.9873 17.792C5.9541 17.792 6.84766 18.0996 7.66797 18.7148C8.48828 19.3301 9.14746 20.3555 9.64551 21.791L10.4805 24.208C11.418 22.2744 12.8535 20.7363 14.7871 19.5938C16.75 18.4219 18.7129 17.8359 20.6758 17.8359Z"/>
<path d="M92.5281 17.8799C95.8973 17.8799 99.032 18.5244 101.932 19.8135C104.862 21.1025 107.426 22.8896 109.623 25.1748C111.82 27.46 113.534 30.082 114.764 33.041C116.024 36 116.654 39.1494 116.654 42.4893C116.654 45.7705 116.024 48.8906 114.764 51.8496C113.505 54.7793 111.762 57.3721 109.535 59.6279C107.338 61.8545 104.774 63.6123 101.845 64.9014C98.9441 66.1904 95.8387 66.835 92.5281 66.835C89.2469 66.835 86.1414 66.2051 83.2117 64.9453C80.3113 63.6855 77.7478 61.9424 75.5213 59.7158C73.324 57.4893 71.5955 54.9111 70.3357 51.9814C69.076 49.0225 68.4461 45.8584 68.4461 42.4893C68.4461 39.1494 69.076 36 70.3357 33.041C71.5955 30.082 73.324 27.4746 75.5213 25.2188C77.7478 22.9336 80.3113 21.1465 83.2117 19.8574C86.1121 18.5391 89.2176 17.8799 92.5281 17.8799ZM77.323 42.5771C77.323 45.4189 78.0115 48.0117 79.3885 50.3555C80.7947 52.6699 82.6551 54.5156 84.9695 55.8926C87.284 57.2695 89.8182 57.958 92.5721 57.958C95.3846 57.958 97.9334 57.2549 100.219 55.8486C102.533 54.4131 104.364 52.5234 105.712 50.1797C107.089 47.8359 107.777 45.2725 107.777 42.4893C107.777 39.6475 107.103 37.04 105.756 34.667C104.408 32.2646 102.577 30.3457 100.262 28.9102C97.9773 27.4746 95.3992 26.7568 92.5281 26.7568C89.6277 26.7568 87.035 27.4893 84.7498 28.9541C82.4646 30.3896 80.6482 32.3086 79.3006 34.7109C77.9822 37.084 77.323 39.7061 77.323 42.5771Z"/>
<path d="M125.357 1.88379C126.763 1.88379 127.891 2.35254 128.741 3.29004C129.59 4.19824 130.001 5.19434 129.971 6.27832V62.8799C129.971 64.0518 129.503 65.0039 128.565 65.7363C127.657 66.4395 126.749 66.791 125.84 66.791C124.581 66.791 123.482 66.3809 122.545 65.5605C121.636 64.7402 121.182 63.6855 121.182 62.3965V6.27832C121.182 5.16504 121.578 4.1543 122.369 3.24609C123.189 2.33789 124.185 1.88379 125.357 1.88379Z"/>
<path d="M140.696 1.88379C142.102 1.88379 143.23 2.35254 144.079 3.29004C144.929 4.19824 145.339 5.19434 145.31 6.27832V62.8799C145.31 64.0518 144.841 65.0039 143.904 65.7363C142.996 66.4395 142.087 66.791 141.179 66.791C139.919 66.791 138.821 66.3809 137.883 65.5605C136.975 64.7402 136.521 63.6855 136.521 62.3965V6.27832C136.521 5.16504 136.916 4.1543 137.707 3.24609C138.528 2.33789 139.524 1.88379 140.696 1.88379Z"/>
<path d="M151.86 21.6592C151.86 20.5459 152.328 19.6377 153.266 18.9346C154.203 18.2314 155.112 17.8799 155.99 17.8799C157.279 17.8799 158.378 18.2607 159.286 19.0225C160.195 19.7842 160.649 20.7949 160.649 22.0547V22.0986L160.737 62.792C160.737 63.9639 160.297 64.96 159.418 65.7803C158.569 66.6006 157.543 67.0107 156.342 67.0107C155.112 67.0107 154.071 66.6006 153.222 65.7803C152.372 64.9307 151.947 63.9199 151.947 62.748L151.86 21.6592Z"/>
<path d="M188.688 18.0117C192.584 18.0117 196.158 18.9785 199.41 20.9121C202.662 22.8457 205.27 25.4531 207.232 28.7344C209.225 31.9863 210.221 35.6045 210.221 39.5889C210.221 40.4092 210.177 41.2441 210.089 42.0938C209.972 43.1777 209.474 44.1006 208.595 44.8623C207.745 45.5947 206.778 45.9609 205.694 45.9609L174.977 46.0049C175.475 48.1143 176.412 50.0918 177.789 51.9375C179.166 53.7832 180.836 55.2773 182.799 56.4199C184.791 57.5625 186.959 58.1338 189.303 58.1338C191.822 58.1338 194.078 57.5186 196.07 56.2881C198.062 55.0576 199.615 53.6367 200.729 52.0254C201.08 51.4688 201.607 51 202.311 50.6191C203.043 50.2383 203.731 50.0479 204.376 50.0479C205.577 50.0479 206.603 50.4873 207.452 51.3662C208.331 52.2451 208.771 53.2852 208.771 54.4863C208.771 55.4238 208.507 56.2588 207.979 56.9912C206.163 59.6572 203.658 61.9717 200.465 63.9346C197.301 65.8682 193.624 66.835 189.435 66.835C186.065 66.835 182.931 66.1758 180.03 64.8574C177.159 63.5391 174.654 61.7373 172.516 59.4521C170.377 57.167 168.707 54.5449 167.506 51.5859C166.334 48.5977 165.748 45.4482 165.748 42.1377C165.748 38.9443 166.334 35.9121 167.506 33.041C168.678 30.1406 170.304 27.5625 172.384 25.3066C174.493 23.0508 176.939 21.2783 179.723 19.9893C182.506 18.6709 185.494 18.0117 188.688 18.0117ZM201.168 37.1719C200.611 34.3008 199.176 31.8545 196.861 29.833C194.547 27.8115 191.822 26.8008 188.688 26.8008C185.494 26.8008 182.667 27.8408 180.206 29.9209C177.774 32.001 176.134 34.4326 175.284 37.2158L201.168 37.1719Z"/>
</mask>
<path d="M20.6758 17.8359C23.5176 17.8359 26.0078 18.5244 28.1465 19.9014C30.3145 21.2783 32.0869 22.9482 33.4639 24.9111C35.1045 23.0068 37.082 21.3516 39.3965 19.9453C41.7109 18.5098 44.2891 17.792 47.1309 17.792C50.8809 17.792 53.9863 18.8027 56.4473 20.8242C58.9375 22.8164 60.7832 25.4385 61.9844 28.6904C63.1855 31.9424 63.7861 35.458 63.7861 39.2373L63.8301 62.6602C63.8301 63.832 63.4053 64.8428 62.5557 65.6924C61.7061 66.542 60.666 66.9668 59.4355 66.9668C58.2051 66.9668 57.165 66.542 56.3154 65.6924C55.4658 64.8428 55.041 63.832 55.041 62.6602L54.9971 39.3252C54.9971 37.0986 54.792 35.0186 54.3818 33.085C53.9717 31.1221 53.2246 29.54 52.1406 28.3389C51.0566 27.1377 49.4893 26.5371 47.4385 26.5371C45.2705 26.5371 43.4102 27.1377 41.8574 28.3389C40.334 29.54 39.1621 31.1221 38.3418 33.085C37.5508 35.0186 37.1553 37.1133 37.1553 39.3691L37.1992 62.792C37.1992 63.9639 36.7598 64.9746 35.8809 65.8242C35.0312 66.6445 34.0059 67.0547 32.8047 67.0547C31.5742 67.0547 30.5342 66.6299 29.6846 65.7803C28.835 64.9307 28.4102 63.9199 28.4102 62.748V39.4131C28.4102 36.6592 27.9414 34.3301 27.0039 32.4258C26.0957 30.5215 24.9092 29.0859 23.4443 28.1191C22.0088 27.123 20.5293 26.625 19.0059 26.625C16.8379 26.625 14.8896 27.6357 13.1611 29.6572C11.4326 31.6787 10.5684 34.8281 10.5684 39.1055V62.792C10.5684 63.9639 10.1289 64.9746 9.25 65.8242C8.40039 66.6445 7.375 67.0547 6.17383 67.0547C4.97266 67.0547 3.93262 66.6299 3.05371 65.7803C2.2041 64.9307 1.7793 63.9199 1.7793 62.748V22.0986C1.7793 20.8975 1.99902 19.8867 2.43848 19.0664C2.90723 18.2168 3.75684 17.792 4.9873 17.792C5.9541 17.792 6.84766 18.0996 7.66797 18.7148C8.48828 19.3301 9.14746 20.3555 9.64551 21.791L10.4805 24.208C11.418 22.2744 12.8535 20.7363 14.7871 19.5938C16.75 18.4219 18.7129 17.8359 20.6758 17.8359Z" fill="black"/>
<path d="M92.5281 17.8799C95.8973 17.8799 99.032 18.5244 101.932 19.8135C104.862 21.1025 107.426 22.8896 109.623 25.1748C111.82 27.46 113.534 30.082 114.764 33.041C116.024 36 116.654 39.1494 116.654 42.4893C116.654 45.7705 116.024 48.8906 114.764 51.8496C113.505 54.7793 111.762 57.3721 109.535 59.6279C107.338 61.8545 104.774 63.6123 101.845 64.9014C98.9441 66.1904 95.8387 66.835 92.5281 66.835C89.2469 66.835 86.1414 66.2051 83.2117 64.9453C80.3113 63.6855 77.7478 61.9424 75.5213 59.7158C73.324 57.4893 71.5955 54.9111 70.3357 51.9814C69.076 49.0225 68.4461 45.8584 68.4461 42.4893C68.4461 39.1494 69.076 36 70.3357 33.041C71.5955 30.082 73.324 27.4746 75.5213 25.2188C77.7478 22.9336 80.3113 21.1465 83.2117 19.8574C86.1121 18.5391 89.2176 17.8799 92.5281 17.8799ZM77.323 42.5771C77.323 45.4189 78.0115 48.0117 79.3885 50.3555C80.7947 52.6699 82.6551 54.5156 84.9695 55.8926C87.284 57.2695 89.8182 57.958 92.5721 57.958C95.3846 57.958 97.9334 57.2549 100.219 55.8486C102.533 54.4131 104.364 52.5234 105.712 50.1797C107.089 47.8359 107.777 45.2725 107.777 42.4893C107.777 39.6475 107.103 37.04 105.756 34.667C104.408 32.2646 102.577 30.3457 100.262 28.9102C97.9773 27.4746 95.3992 26.7568 92.5281 26.7568C89.6277 26.7568 87.035 27.4893 84.7498 28.9541C82.4646 30.3896 80.6482 32.3086 79.3006 34.7109C77.9822 37.084 77.323 39.7061 77.323 42.5771Z" fill="black"/>
<path d="M125.357 1.88379C126.763 1.88379 127.891 2.35254 128.741 3.29004C129.59 4.19824 130.001 5.19434 129.971 6.27832V62.8799C129.971 64.0518 129.503 65.0039 128.565 65.7363C127.657 66.4395 126.749 66.791 125.84 66.791C124.581 66.791 123.482 66.3809 122.545 65.5605C121.636 64.7402 121.182 63.6855 121.182 62.3965V6.27832C121.182 5.16504 121.578 4.1543 122.369 3.24609C123.189 2.33789 124.185 1.88379 125.357 1.88379Z" fill="black"/>
<path d="M140.696 1.88379C142.102 1.88379 143.23 2.35254 144.079 3.29004C144.929 4.19824 145.339 5.19434 145.31 6.27832V62.8799C145.31 64.0518 144.841 65.0039 143.904 65.7363C142.996 66.4395 142.087 66.791 141.179 66.791C139.919 66.791 138.821 66.3809 137.883 65.5605C136.975 64.7402 136.521 63.6855 136.521 62.3965V6.27832C136.521 5.16504 136.916 4.1543 137.707 3.24609C138.528 2.33789 139.524 1.88379 140.696 1.88379Z" fill="black"/>
<path d="M151.86 21.6592C151.86 20.5459 152.328 19.6377 153.266 18.9346C154.203 18.2314 155.112 17.8799 155.99 17.8799C157.279 17.8799 158.378 18.2607 159.286 19.0225C160.195 19.7842 160.649 20.7949 160.649 22.0547V22.0986L160.737 62.792C160.737 63.9639 160.297 64.96 159.418 65.7803C158.569 66.6006 157.543 67.0107 156.342 67.0107C155.112 67.0107 154.071 66.6006 153.222 65.7803C152.372 64.9307 151.947 63.9199 151.947 62.748L151.86 21.6592Z" fill="black"/>
<path d="M188.688 18.0117C192.584 18.0117 196.158 18.9785 199.41 20.9121C202.662 22.8457 205.27 25.4531 207.232 28.7344C209.225 31.9863 210.221 35.6045 210.221 39.5889C210.221 40.4092 210.177 41.2441 210.089 42.0938C209.972 43.1777 209.474 44.1006 208.595 44.8623C207.745 45.5947 206.778 45.9609 205.694 45.9609L174.977 46.0049C175.475 48.1143 176.412 50.0918 177.789 51.9375C179.166 53.7832 180.836 55.2773 182.799 56.4199C184.791 57.5625 186.959 58.1338 189.303 58.1338C191.822 58.1338 194.078 57.5186 196.07 56.2881C198.062 55.0576 199.615 53.6367 200.729 52.0254C201.08 51.4688 201.607 51 202.311 50.6191C203.043 50.2383 203.731 50.0479 204.376 50.0479C205.577 50.0479 206.603 50.4873 207.452 51.3662C208.331 52.2451 208.771 53.2852 208.771 54.4863C208.771 55.4238 208.507 56.2588 207.979 56.9912C206.163 59.6572 203.658 61.9717 200.465 63.9346C197.301 65.8682 193.624 66.835 189.435 66.835C186.065 66.835 182.931 66.1758 180.03 64.8574C177.159 63.5391 174.654 61.7373 172.516 59.4521C170.377 57.167 168.707 54.5449 167.506 51.5859C166.334 48.5977 165.748 45.4482 165.748 42.1377C165.748 38.9443 166.334 35.9121 167.506 33.041C168.678 30.1406 170.304 27.5625 172.384 25.3066C174.493 23.0508 176.939 21.2783 179.723 19.9893C182.506 18.6709 185.494 18.0117 188.688 18.0117ZM201.168 37.1719C200.611 34.3008 199.176 31.8545 196.861 29.833C194.547 27.8115 191.822 26.8008 188.688 26.8008C185.494 26.8008 182.667 27.8408 180.206 29.9209C177.774 32.001 176.134 34.4326 175.284 37.2158L201.168 37.1719Z" fill="black"/>
<path d="M20.6758 17.8359C23.5176 17.8359 26.0078 18.5244 28.1465 19.9014C30.3145 21.2783 32.0869 22.9482 33.4639 24.9111C35.1045 23.0068 37.082 21.3516 39.3965 19.9453C41.7109 18.5098 44.2891 17.792 47.1309 17.792C50.8809 17.792 53.9863 18.8027 56.4473 20.8242C58.9375 22.8164 60.7832 25.4385 61.9844 28.6904C63.1855 31.9424 63.7861 35.458 63.7861 39.2373L63.8301 62.6602C63.8301 63.832 63.4053 64.8428 62.5557 65.6924C61.7061 66.542 60.666 66.9668 59.4355 66.9668C58.2051 66.9668 57.165 66.542 56.3154 65.6924C55.4658 64.8428 55.041 63.832 55.041 62.6602L54.9971 39.3252C54.9971 37.0986 54.792 35.0186 54.3818 33.085C53.9717 31.1221 53.2246 29.54 52.1406 28.3389C51.0566 27.1377 49.4893 26.5371 47.4385 26.5371C45.2705 26.5371 43.4102 27.1377 41.8574 28.3389C40.334 29.54 39.1621 31.1221 38.3418 33.085C37.5508 35.0186 37.1553 37.1133 37.1553 39.3691L37.1992 62.792C37.1992 63.9639 36.7598 64.9746 35.8809 65.8242C35.0312 66.6445 34.0059 67.0547 32.8047 67.0547C31.5742 67.0547 30.5342 66.6299 29.6846 65.7803C28.835 64.9307 28.4102 63.9199 28.4102 62.748V39.4131C28.4102 36.6592 27.9414 34.3301 27.0039 32.4258C26.0957 30.5215 24.9092 29.0859 23.4443 28.1191C22.0088 27.123 20.5293 26.625 19.0059 26.625C16.8379 26.625 14.8896 27.6357 13.1611 29.6572C11.4326 31.6787 10.5684 34.8281 10.5684 39.1055V62.792C10.5684 63.9639 10.1289 64.9746 9.25 65.8242C8.40039 66.6445 7.375 67.0547 6.17383 67.0547C4.97266 67.0547 3.93262 66.6299 3.05371 65.7803C2.2041 64.9307 1.7793 63.9199 1.7793 62.748V22.0986C1.7793 20.8975 1.99902 19.8867 2.43848 19.0664C2.90723 18.2168 3.75684 17.792 4.9873 17.792C5.9541 17.792 6.84766 18.0996 7.66797 18.7148C8.48828 19.3301 9.14746 20.3555 9.64551 21.791L10.4805 24.208C11.418 22.2744 12.8535 20.7363 14.7871 19.5938C16.75 18.4219 18.7129 17.8359 20.6758 17.8359Z" stroke="black" stroke-width="2" mask="url(#path-1-outside-1_102_15)"/>
<path d="M92.5281 17.8799C95.8973 17.8799 99.032 18.5244 101.932 19.8135C104.862 21.1025 107.426 22.8896 109.623 25.1748C111.82 27.46 113.534 30.082 114.764 33.041C116.024 36 116.654 39.1494 116.654 42.4893C116.654 45.7705 116.024 48.8906 114.764 51.8496C113.505 54.7793 111.762 57.3721 109.535 59.6279C107.338 61.8545 104.774 63.6123 101.845 64.9014C98.9441 66.1904 95.8387 66.835 92.5281 66.835C89.2469 66.835 86.1414 66.2051 83.2117 64.9453C80.3113 63.6855 77.7478 61.9424 75.5213 59.7158C73.324 57.4893 71.5955 54.9111 70.3357 51.9814C69.076 49.0225 68.4461 45.8584 68.4461 42.4893C68.4461 39.1494 69.076 36 70.3357 33.041C71.5955 30.082 73.324 27.4746 75.5213 25.2188C77.7478 22.9336 80.3113 21.1465 83.2117 19.8574C86.1121 18.5391 89.2176 17.8799 92.5281 17.8799ZM77.323 42.5771C77.323 45.4189 78.0115 48.0117 79.3885 50.3555C80.7947 52.6699 82.6551 54.5156 84.9695 55.8926C87.284 57.2695 89.8182 57.958 92.5721 57.958C95.3846 57.958 97.9334 57.2549 100.219 55.8486C102.533 54.4131 104.364 52.5234 105.712 50.1797C107.089 47.8359 107.777 45.2725 107.777 42.4893C107.777 39.6475 107.103 37.04 105.756 34.667C104.408 32.2646 102.577 30.3457 100.262 28.9102C97.9773 27.4746 95.3992 26.7568 92.5281 26.7568C89.6277 26.7568 87.035 27.4893 84.7498 28.9541C82.4646 30.3896 80.6482 32.3086 79.3006 34.7109C77.9822 37.084 77.323 39.7061 77.323 42.5771Z" stroke="black" stroke-width="2" mask="url(#path-1-outside-1_102_15)"/>
<path d="M125.357 1.88379C126.763 1.88379 127.891 2.35254 128.741 3.29004C129.59 4.19824 130.001 5.19434 129.971 6.27832V62.8799C129.971 64.0518 129.503 65.0039 128.565 65.7363C127.657 66.4395 126.749 66.791 125.84 66.791C124.581 66.791 123.482 66.3809 122.545 65.5605C121.636 64.7402 121.182 63.6855 121.182 62.3965V6.27832C121.182 5.16504 121.578 4.1543 122.369 3.24609C123.189 2.33789 124.185 1.88379 125.357 1.88379Z" stroke="black" stroke-width="2" mask="url(#path-1-outside-1_102_15)"/>
<path d="M140.696 1.88379C142.102 1.88379 143.23 2.35254 144.079 3.29004C144.929 4.19824 145.339 5.19434 145.31 6.27832V62.8799C145.31 64.0518 144.841 65.0039 143.904 65.7363C142.996 66.4395 142.087 66.791 141.179 66.791C139.919 66.791 138.821 66.3809 137.883 65.5605C136.975 64.7402 136.521 63.6855 136.521 62.3965V6.27832C136.521 5.16504 136.916 4.1543 137.707 3.24609C138.528 2.33789 139.524 1.88379 140.696 1.88379Z" stroke="black" stroke-width="2" mask="url(#path-1-outside-1_102_15)"/>
<path d="M151.86 21.6592C151.86 20.5459 152.328 19.6377 153.266 18.9346C154.203 18.2314 155.112 17.8799 155.99 17.8799C157.279 17.8799 158.378 18.2607 159.286 19.0225C160.195 19.7842 160.649 20.7949 160.649 22.0547V22.0986L160.737 62.792C160.737 63.9639 160.297 64.96 159.418 65.7803C158.569 66.6006 157.543 67.0107 156.342 67.0107C155.112 67.0107 154.071 66.6006 153.222 65.7803C152.372 64.9307 151.947 63.9199 151.947 62.748L151.86 21.6592Z" stroke="black" stroke-width="2" mask="url(#path-1-outside-1_102_15)"/>
<path d="M188.688 18.0117C192.584 18.0117 196.158 18.9785 199.41 20.9121C202.662 22.8457 205.27 25.4531 207.232 28.7344C209.225 31.9863 210.221 35.6045 210.221 39.5889C210.221 40.4092 210.177 41.2441 210.089 42.0938C209.972 43.1777 209.474 44.1006 208.595 44.8623C207.745 45.5947 206.778 45.9609 205.694 45.9609L174.977 46.0049C175.475 48.1143 176.412 50.0918 177.789 51.9375C179.166 53.7832 180.836 55.2773 182.799 56.4199C184.791 57.5625 186.959 58.1338 189.303 58.1338C191.822 58.1338 194.078 57.5186 196.07 56.2881C198.062 55.0576 199.615 53.6367 200.729 52.0254C201.08 51.4688 201.607 51 202.311 50.6191C203.043 50.2383 203.731 50.0479 204.376 50.0479C205.577 50.0479 206.603 50.4873 207.452 51.3662C208.331 52.2451 208.771 53.2852 208.771 54.4863C208.771 55.4238 208.507 56.2588 207.979 56.9912C206.163 59.6572 203.658 61.9717 200.465 63.9346C197.301 65.8682 193.624 66.835 189.435 66.835C186.065 66.835 182.931 66.1758 180.03 64.8574C177.159 63.5391 174.654 61.7373 172.516 59.4521C170.377 57.167 168.707 54.5449 167.506 51.5859C166.334 48.5977 165.748 45.4482 165.748 42.1377C165.748 38.9443 166.334 35.9121 167.506 33.041C168.678 30.1406 170.304 27.5625 172.384 25.3066C174.493 23.0508 176.939 21.2783 179.723 19.9893C182.506 18.6709 185.494 18.0117 188.688 18.0117ZM201.168 37.1719C200.611 34.3008 199.176 31.8545 196.861 29.833C194.547 27.8115 191.822 26.8008 188.688 26.8008C185.494 26.8008 182.667 27.8408 180.206 29.9209C177.774 32.001 176.134 34.4326 175.284 37.2158L201.168 37.1719Z" stroke="black" stroke-width="2" mask="url(#path-1-outside-1_102_15)"/>
<circle cx="156" cy="8" r="6" fill="black"/>
</svg>
