<svg width="860" height="413" viewBox="0 0 860 413" fill="none" xmlns="http://www.w3.org/2000/svg">
<path fill-rule="evenodd" clip-rule="evenodd" d="M622.947 0C524.121 0 439.189 29.6183 402 72H418.736C428.775 62.7013 441.838 53.8781 457.883 45.8892C499.506 25.1639 557.849 12 622.947 12C688.045 12 746.387 25.1639 788.011 45.8892C804.055 53.8781 817.118 62.7013 827.157 72H843.893C806.704 29.6183 721.772 0 622.947 0ZM69.7907 304.06L69.6642 304.049C48.2087 302.24 47.6907 302.196 47.6907 279.88V225.02H127.771V279.88C127.771 302.24 127.511 302.5 105.931 304.06V309H175.091V304.06L174.964 304.049C153.509 302.24 152.991 302.196 152.991 279.88V145.72C152.991 123.36 153.251 123.1 174.831 121.54V116.6H105.671V121.54L105.797 121.551C127.253 123.36 127.771 123.404 127.771 145.72V217.74H47.6907V145.72C47.6907 123.36 47.9507 123.1 69.5307 121.54V116.6H0.370703V121.54L0.497183 121.551C21.9527 123.36 22.4707 123.404 22.4707 145.72V279.88C22.4707 302.24 22.2107 302.5 0.630703 304.06V309H69.7907V304.06ZM242.729 311.6C266.389 311.6 283.029 294.96 294.209 281.44L291.089 277.28C280.169 288.72 266.649 296.78 254.169 296.78C229.209 296.78 215.169 264.02 214.909 227.36L290.569 219.56C290.569 178.22 266.649 166 245.849 166C210.749 166 189.429 199.02 189.429 242.18C189.429 288.2 214.389 311.6 242.729 311.6ZM242.469 173.54C250.269 173.54 264.309 177.7 265.869 215.14H215.429C217.509 190.7 226.609 173.54 242.469 173.54ZM376.341 291.58C371.661 296.26 365.681 300.16 357.881 300.16C348.521 300.16 343.581 294.44 343.581 279.62V179.78L375.301 176.66V171.2L343.581 167.56V140H338.641C336.561 158.98 323.301 171.2 303.801 171.2V176.66L319.661 179.26V283.26C319.661 301.46 331.621 311.6 348.001 311.6C361.781 311.6 372.181 304.58 379.201 296.26L376.341 291.58ZM446.447 304.06C427.727 302.5 426.947 301.98 426.947 274.68V177.96H459.967C475.827 177.96 481.547 177.96 481.547 194.08V274.68C481.547 301.98 480.767 302.5 459.707 304.06V309H524.967V304.06C506.507 302.24 505.467 301.98 505.467 274.68V156.9L503.387 155.6C489.347 167.82 477.387 170.42 457.107 170.42H426.947V157.42C426.947 122.58 435.007 106.46 453.207 106.46C467.355 106.46 470.996 115.71 474.392 124.34C477.363 131.887 480.146 138.96 489.607 138.96C499.227 138.96 505.467 131.94 505.467 123.1C505.467 105.42 478.427 98.66 459.707 98.66C424.607 98.66 403.027 123.1 403.027 161.06V168.34L386.387 171.2V177.96H403.027V274.68C403.027 301.98 402.247 302.5 381.187 304.06V309H446.447V304.06ZM591.343 311.6C615.003 311.6 631.643 294.96 642.823 281.44L639.703 277.28C628.783 288.72 615.263 296.78 602.783 296.78C577.823 296.78 563.783 264.02 563.523 227.36L639.183 219.56C639.183 178.22 615.263 166 594.463 166C559.363 166 538.043 199.02 538.043 242.18C538.043 288.2 563.003 311.6 591.343 311.6ZM591.083 173.54C598.883 173.54 612.923 177.7 614.483 215.14H564.043C566.123 190.7 575.223 173.54 591.083 173.54ZM716.634 304.06L716.486 304.045C698.156 302.238 694.794 301.907 694.794 274.68V100.22L692.714 98.92C678.674 111.14 666.714 117.12 646.434 117.12V122.06C664.634 122.06 670.874 123.88 670.874 140.78V274.68C670.874 301.98 670.094 302.5 649.034 304.06V309H716.634V304.06ZM859.004 309V304.06C840.544 302.24 839.504 301.98 839.504 274.68V100.22L837.424 98.92C823.384 111.14 811.424 117.12 791.144 117.12V122.06C809.344 122.06 815.584 123.88 815.584 140.78V173.28C809.084 169.38 798.424 166 787.504 166C756.304 166 727.964 194.86 727.964 242.44C727.964 285.6 748.504 311.6 775.024 311.6C791.404 311.6 803.884 301.46 815.584 284.82V309H859.004ZM782.824 299.64C765.144 299.64 753.704 279.36 753.704 239.32C753.704 194.86 766.184 174.32 786.204 174.32C799.464 174.32 815.584 183.42 815.584 209.94V262.46C809.864 287.42 796.604 299.64 782.824 299.64ZM402 341C439.189 383.382 524.121 413 622.947 413C721.772 413 806.704 383.382 843.893 341H827.157C817.118 350.299 804.055 359.122 788.011 367.111C746.387 387.836 688.045 401 622.947 401C557.848 401 499.506 387.836 457.883 367.111C441.838 359.122 428.775 350.299 418.736 341H402Z" fill="black"/>
</svg>
