<svg width="709" height="187" viewBox="0 0 709 187" fill="none" xmlns="http://www.w3.org/2000/svg">
<path d="M106.312 181.14C106.052 180.62 105.792 179.84 105.792 179.32C105.532 178.8 104.752 177.76 103.972 175.94C99.8122 167.1 86.5522 137.46 80.8322 123.68C77.9722 116.4 74.8522 108.86 71.9922 101.58L69.1322 94.3L72.5122 93.52C82.1322 91.18 89.9322 85.2 95.3922 76.1C102.672 64.14 104.492 48.02 100.592 34.5C95.1322 15.78 76.9322 2.26 57.1722 2.26H56.6522C48.8522 2.52001 39.7522 2.52001 28.8322 2.52001L10.1122 2.26C9.85219 2.26 9.85219 2.26 9.59219 2.26H9.33219H0.492188V181.4C0.492188 182.96 1.53219 184 3.09219 184H18.4322C18.6922 184 19.2122 184 19.4722 184H23.3722C24.6722 184 25.9722 182.96 25.9722 181.4V97.94H30.1322C33.5122 97.68 37.6722 97.68 40.7922 97.68H42.6122L43.3922 99.5C43.3922 99.76 43.6522 100.02 43.6522 100.28C44.1722 100.8 44.1722 101.58 44.6922 102.36C44.6922 102.88 44.9522 103.66 45.2122 104.18C46.2522 107.3 47.5522 110.42 48.5922 113.28L48.8522 113.54C51.7122 121.08 54.5722 128.62 57.6922 136.42C59.7722 141.36 61.8522 146.56 63.9322 151.5L64.9722 154.1L76.9322 184H83.6922C85.5122 184 88.1122 184 90.7122 184H95.3922C96.4322 184 97.7322 184 98.5122 184H98.7722H107.612L106.312 181.14ZM58.4722 72.46C51.9722 72.72 46.2522 72.98 40.5322 72.98C36.6322 72.98 32.7322 72.72 28.5722 72.46L25.9722 72.2V28.26H28.8322C31.1722 28.26 33.7722 28 36.1122 28C45.7322 27.74 54.5722 27.48 63.4122 29.56C64.7122 29.82 66.0122 30.08 67.3122 30.86C75.3722 35.02 76.9322 44.12 77.1922 47.76C77.7122 56.6 73.8122 65.7 67.5722 69.86C66.0122 70.9 62.8922 72.2 61.3322 72.2L58.4722 72.46Z" fill="black"/>
<path d="M222.351 91.44V90.14C222.351 86.76 222.351 83.64 222.351 80.26C222.091 74.28 221.831 67.78 221.571 62.58C221.051 57.9 220.791 52.96 220.791 48.02C220.271 34.76 214.811 21.76 205.971 13.18C197.651 5.12001 184.911 0.700004 171.651 0.700004C170.351 0.700004 169.311 0.700004 168.011 0.700004C155.011 1.48001 143.571 6.94 136.551 15.52C125.631 29.04 124.591 45.42 124.071 62.32C123.811 78.96 123.551 101.06 125.111 122.9V123.16C125.371 127.84 125.631 132.78 125.891 137.46C126.151 151.76 131.351 165.02 139.931 173.08C148.251 181.14 160.731 185.82 174.251 185.82C175.291 185.82 176.591 185.82 177.891 185.56C190.891 184.78 202.331 179.58 209.091 171C219.491 158 222.091 142.66 222.351 123.94C222.351 118.22 222.351 112.5 222.351 107.56C222.351 106 222.351 104.18 222.351 102.1V101.84C222.611 98.2 222.611 94.04 222.351 91.44ZM197.131 127.32C196.611 142.92 192.971 152.8 185.691 157.48C182.311 159.82 177.891 161.12 173.471 161.12C169.831 161.12 166.191 160.34 163.331 158.78C157.351 155.4 153.711 149.94 151.631 141.36C148.771 130.44 148.511 115.62 148.511 103.92C148.511 102.62 148.511 100.54 148.511 98.46C148.511 96.12 148.251 93.26 148.251 91.7V91.44C148.251 80 148.251 69.6 148.511 58.94C149.031 43.34 152.931 33.72 160.211 28.78C163.591 26.44 167.751 25.4 172.431 25.4C176.071 25.4 179.711 26.18 182.571 27.74C188.291 30.86 192.191 36.58 194.271 45.16C196.871 55.82 197.391 70.9 197.391 82.6C197.391 85.2 197.131 88.06 197.131 91.44C197.131 94.56 197.131 97.68 197.131 101.06C197.391 109.64 197.391 119.52 197.131 127.32Z" fill="black"/>
<path d="M346.845 128.36C346.585 119 346.585 108.34 346.585 98.2C346.585 95.08 346.585 91.7 346.585 88.58C346.585 80.52 346.585 72.46 346.585 64.4C346.585 48.54 346.325 32.16 346.325 15.26C346.325 13.7 346.325 12.14 346.065 10.84V10.32V4.34C346.065 3.3 345.285 2.26 344.245 2.26H336.445C335.405 2.26 334.365 2.26 333.325 2.26H332.545C331.245 2.26 329.425 2.26 327.865 2.26C327.605 2.26 327.345 2.26 327.085 2.26H322.405C321.365 2.26 320.585 3.3 320.585 4.34L320.325 9.80001C320.065 12.14 320.065 14.48 320.065 16.82C320.065 26.96 320.325 41.52 320.325 51.66C320.325 57.38 320.325 62.58 320.325 66.22C320.325 68.04 320.325 69.6 320.325 70.64C320.325 71.16 320.325 71.68 320.325 72.2L320.585 75.06H320.325V80.52C320.325 86.5 320.325 92.74 320.325 98.98C320.325 101.06 320.325 103.4 320.585 106C320.585 114.32 320.845 122.64 320.585 130.96C320.585 131.74 320.585 132.78 320.585 133.56C320.325 140.06 320.325 145.52 316.685 150.46C312.525 156.18 305.245 159.56 296.925 159.3C288.605 159.04 280.805 154.88 276.905 148.64C273.005 142.14 272.745 134.86 272.745 126.28V123.42V4.34C272.745 3.3 271.965 2.26 270.925 2.26H262.345C261.305 2.26 259.745 2.26 258.705 2.26H258.445C257.665 2.26 256.885 2.26 256.105 2.26H249.085C248.045 2.26 247.265 3.3 247.265 4.34V9.28V9.54001C247.005 9.80001 247.005 10.32 247.005 10.58C246.745 12.14 246.745 25.66 247.005 68.04V68.56C247.005 74.54 247.265 79.74 247.265 83.12C247.265 88.06 247.005 93.26 246.745 98.72C246.485 105.22 246.225 111.98 246.485 118.48C246.485 120.56 246.485 122.9 246.485 125.24C246.745 140.58 247.005 156.18 257.405 169.44C264.425 178.28 276.385 184.26 290.165 185.82C292.505 186.08 294.845 186.34 297.185 186.34C307.845 186.34 318.245 183.48 326.045 178.28C339.825 169.18 347.365 151.5 346.845 128.36Z" fill="black"/>
<path d="M452.502 91.18C444.182 83.38 434.042 79.22 424.422 75.06L423.122 74.54C422.082 74.28 421.042 73.76 419.742 73.24C410.642 69.34 400.762 63.88 396.862 53.74C393.742 45.94 395.822 36.06 401.542 31.38C407.262 26.44 410.642 24.1 419.742 25.92C420.002 25.92 420.262 25.92 420.522 25.92C426.502 26.96 444.182 29.56 445.222 56.08H468.362C468.622 56.08 468.882 56.08 468.882 55.82C468.882 55.82 469.142 55.56 468.882 55.3L468.622 52.7V52.44C468.622 51.92 468.622 51.66 468.622 51.14C466.802 33.98 460.042 19.94 449.382 11.36C437.162 1.48001 418.442 -1.89999 403.102 2.52001C388.802 6.42001 378.922 15 374.242 27.48C369.042 41 369.822 56.08 376.062 68.56C380.742 77.92 388.542 85.72 400.242 92.22C404.142 94.3 408.302 96.12 412.722 97.94C419.742 101.06 427.022 104.18 433.002 109.12C446.002 119.52 448.342 139.28 437.942 153.06C433.782 158.52 425.982 161.38 417.402 160.6C408.562 159.82 401.022 155.4 397.902 149.16C395.042 143.7 393.482 137.2 393.482 131.22L392.962 124.46C392.702 123.68 392.182 123.16 391.142 123.16H370.342C369.562 123.16 368.782 123.68 368.782 124.46C368.522 126.02 368.262 127.84 368.262 129.4C368.002 131.74 368.002 133.82 368.002 135.9C368.002 136.68 368.002 137.98 368.002 139.02C368.782 151.5 373.982 162.68 383.082 172.56C391.142 180.88 404.402 185.82 419.482 185.82C420.002 185.82 420.262 185.82 420.782 185.82C427.282 185.56 433.782 184.52 439.242 182.7C454.842 177.24 465.502 164.76 469.142 147.34C473.302 127.06 466.802 104.44 452.502 91.18Z" fill="black"/>
<path d="M584.838 158.52H580.158L579.898 158.26C579.638 158.26 579.378 158.26 578.858 158.26C576.518 158 574.178 158 572.098 158H570.798C563.778 158 556.758 158 550.518 158H549.998C542.978 158 535.698 158 528.678 157.74C526.338 157.74 523.998 157.74 521.918 157.48H520.878L519.058 155.66V100.54H565.598C566.898 100.54 567.938 99.24 567.938 97.94L568.198 91.18C568.198 89.62 568.198 87.8 568.198 85.72H567.938V77.4C567.938 76.1 566.898 74.8 565.598 74.8H531.018H528.678C527.898 74.8 527.118 74.8 526.338 74.8H526.078C524.518 74.8 523.478 74.8 522.178 74.8H519.578L519.318 72.2C519.318 70.12 519.318 68.04 519.318 66.48C519.318 62.84 519.318 59.46 519.318 56.08C519.578 49.58 519.578 42.82 519.318 36.32C519.318 33.98 519.318 32.16 519.318 30.86L519.578 28H579.118C580.418 28 581.458 26.96 581.458 25.4V16.04C581.718 15 581.718 13.96 581.458 13.18V4.86001C581.458 3.56001 580.418 2.26 579.118 2.26H519.058C513.338 2.26 508.138 2.26 502.678 2.26C502.418 2.26 502.418 2.26 502.158 2.26H501.898H495.918C494.618 2.26 493.578 3.56001 493.578 4.86001V181.4C493.578 182.96 494.618 184 495.918 184H501.898C501.898 184 502.158 184 502.418 184C505.018 184 511.258 184 520.618 184C535.178 184 555.198 184 568.458 184H584.838C586.398 184 587.438 182.96 587.438 181.4V160.86C587.438 159.56 586.398 158.52 584.838 158.52Z" fill="black"/>
<path d="M708.22 3.04C707.96 2.78001 707.7 2.26 706.92 2.26H683.52C683 2.26 682.48 2.78001 682.22 3.3L681.18 5.12001C681.18 5.12001 681.18 5.38001 680.92 5.64C680.92 5.9 680.66 6.16001 680.4 6.42001V6.68C679.62 8.24 678.84 9.80001 678.06 11.62C674.68 18.9 671.3 27.22 667.92 35.28C663.76 45.16 659.34 55.56 655.18 63.88C654.92 64.4 654.92 64.66 654.66 65.18L652.06 70.64L649.46 65.18C642.96 52.44 633.6 32.42 628.66 21.76L628.4 21.5C626.58 17.34 625.02 13.96 623.72 11.36C623.46 10.58 622.94 9.80001 622.68 9.28C622.16 7.98 621.64 6.42001 620.6 5.38C620.34 4.86001 620.08 4.6 619.82 4.08001L619.3 3.3C619.04 2.78001 618.52 2.26 617.74 2.26H612.8C612.02 2.26 610.98 2.26 609.68 2.26C606.56 2.26 603.44 2.26 601.88 2.26C601.62 2.26 601.36 2.26 601.36 2.26H593.82C593.04 2.26 592.52 2.78001 592.52 3.04C592.26 3.3 592 3.82001 592.26 4.6L594.6 10.32V10.58C595.12 11.88 595.64 13.18 595.9 13.7C600.32 22.54 604.74 31.64 610.72 43.6C612.54 47.24 614.36 50.88 616.18 54.78H616.44C621.12 64.14 625.8 74.02 630.74 83.38L631 83.9C635.16 91.7 638.54 97.94 638.54 108.34C638.28 114.84 637.5 163.46 637.5 167.62C637.5 169.44 637.5 171 637.5 172.3V173.6C637.5 175.42 637.5 176.98 637.5 178.28V178.54V181.4C637.5 182.96 638.8 184 640.1 184H660.9C662.2 184 663.24 182.96 663.5 181.66V180.62C663.5 180.36 663.5 180.1 663.76 179.58C663.76 179.58 663.76 179.32 663.76 179.06C663.76 178.54 663.76 177.76 663.76 176.98V176.72C664.02 173.34 664.02 169.44 664.02 167.62V163.72C664.28 144.22 664.54 127.32 665.58 107.82V107.56C665.58 102.88 665.58 101.84 666.62 98.98V98.72C672.34 86.76 678.84 71.94 685.08 57.64C690.54 44.64 696.52 30.86 701.72 19.94C702.5 18.38 703.28 16.82 703.8 15.78C704.84 13.96 705.62 12.14 706.14 10.58V10.06L708.22 4.6C708.48 3.82001 708.22 3.3 708.22 3.04Z" fill="black"/>
</svg>
