<svg width="403" height="182" viewBox="0 0 403 182" fill="none" xmlns="http://www.w3.org/2000/svg">
<path d="M103.2 0.259996H96.9602H96.7002C96.4402 0.259996 96.1802 0.259996 95.9202 0.259996C94.3602 -2.38419e-07 92.8002 0 91.5002 0C90.9802 0 90.4602 0 90.2002 0C78.5002 0 66.8002 -2.38419e-07 55.6202 0.259996C51.9802 0.259996 48.6002 0.259996 44.9602 0.259996H19.4802C18.9602 0.259996 18.4402 0.259996 17.9202 0.259996C15.0602 0.259996 12.4602 0.259996 10.3802 0.259996H1.02023C0.500234 0.259996 0.240234 0.780005 0.240234 1.3V23.92C0.240234 24.44 0.500234 24.96 1.02023 24.96H4.40023C4.92023 24.96 5.44023 24.96 5.96023 25.22C6.74023 25.22 7.52023 25.48 8.30023 25.48C12.7202 25.48 17.4002 25.48 21.8202 25.74C24.4202 25.74 27.0202 25.74 29.3602 25.74C30.4002 25.74 31.4402 25.74 32.4802 25.74C33.7802 25.74 35.0802 25.74 36.1202 26H38.9802V28.86C38.9802 29.12 38.9802 29.64 38.9802 30.16V30.42C38.7202 43.16 38.9802 56.42 39.2402 67.86C39.5002 79.3 39.5002 111.28 39.5002 137.02C39.5002 152.62 39.5002 166.14 39.5002 172.38C39.5002 174.46 39.5002 177.84 39.2402 179.66C39.2402 180.44 39.2402 180.96 39.2402 180.96C39.2402 181.48 39.7602 182 40.2802 182H66.0202C66.5402 182 67.0602 181.48 67.0602 180.96V25.22H69.9202C74.0802 25.22 79.0202 25.22 83.9602 25.22C88.1202 25.22 92.0202 25.22 94.6202 25.22C95.6602 25.22 96.9602 25.22 98.2602 24.96H98.7802H103.2C103.72 24.96 104.24 24.44 104.24 23.92V1.3C104.24 0.780005 103.72 0.259996 103.2 0.259996Z" fill="black"/>
<path d="M204.3 178.88L202.48 172.64C201.7 168.74 200.66 164.84 199.88 161.2L199.1 158.34C198.84 156.52 196.76 148.72 194.16 137.8C185.32 99.84 168.68 29.12 164 12.22V11.96C163.48 9.88 162.96 8.06 162.44 6.50001L162.18 6.24L161.66 4.16001C160.88 1.82001 159.06 0.259996 156.72 0.259996H137.22C134.62 0.259996 132.54 2.08 132.02 4.42L129.68 16.38L128.9 20.02C127.34 25.74 126.04 31.72 124.74 38.22C123.18 44.2 121.88 50.18 120.58 56.16C117.72 68.12 114.86 80.34 112.26 91.52V91.78C110.18 100.36 108.1 109.2 106.02 117.78C104.72 123.5 103.42 128.96 102.12 134.42C99.7796 145.08 97.1796 155.74 94.5796 166.4L94.3196 167.18C93.7996 168.74 93.5396 169.78 93.2796 171.08L92.4996 174.2L91.1996 178.88C90.9396 179.66 91.1996 180.44 91.4596 181.22C91.9796 181.74 92.7596 182 93.5396 182H115.64C116.94 182 117.98 181.22 118.24 180.18L119.02 175.24C119.54 172.38 120.32 169.26 120.84 166.4C121.88 160.94 123.18 155.48 124.22 150.54C124.74 148.2 125 146.64 125.26 145.6C125.78 143 126.04 142.22 127.08 141.44C127.86 140.66 129.42 139.88 136.7 140.14C137.22 140.14 139.3 140.14 143.2 139.88C151.78 139.88 162.44 139.88 164.78 139.88C165.56 139.88 166.34 139.88 166.86 139.88L168.68 140.14L169.2 141.96C169.46 142.48 169.72 143.26 169.98 144.04C170.5 146.12 172.06 154.18 175.18 169.26L175.7 171.6V171.86C175.96 173.16 176.22 174.46 176.48 175.5L177.52 180.18C177.78 181.22 178.82 182 180.12 182H201.96C202.74 182 203.26 181.74 203.78 181.22C204.3 180.44 204.56 179.66 204.3 178.88ZM158.8 115.44C156.46 115.7 154.12 115.44 151.78 115.44C150.48 115.44 148.92 115.44 147.62 115.44H147.36C147.36 115.44 147.36 115.44 147.1 115.44C146.84 115.44 146.58 115.44 146.32 115.44C145.54 115.44 144.5 115.44 143.46 115.44C142.68 115.44 141.38 115.7 140.08 115.7C138.78 115.96 137.22 115.96 135.92 115.96H135.66H132.02L132.8 112.58C133.32 110.24 133.84 107.9 134.36 105.82C134.62 104.52 135.14 103.22 135.66 101.92C135.92 100.88 136.44 99.58 136.7 98.54C137.48 94.12 140.08 79.04 141.9 66.82C143.46 57.46 144.76 49.92 145.02 48.1L147.62 35.88L150.74 48.1C152.3 54.34 156.2 79.3 158.8 94.12C159.58 100.1 160.36 105.04 160.62 105.82C161.14 108.16 161.4 110.24 161.66 112.32L162.18 115.44H158.8Z" fill="black"/>
<path d="M293.122 0.259996H286.882H286.622C286.362 0.259996 286.102 0.259996 285.842 0.259996C284.282 -2.38419e-07 282.722 0 281.422 0C280.902 0 280.382 0 280.122 0C268.422 0 256.722 -2.38419e-07 245.542 0.259996C241.902 0.259996 238.522 0.259996 234.882 0.259996H209.402C208.882 0.259996 208.362 0.259996 207.842 0.259996C204.982 0.259996 202.382 0.259996 200.302 0.259996H190.942C190.422 0.259996 190.162 0.780005 190.162 1.3V23.92C190.162 24.44 190.422 24.96 190.942 24.96H194.322C194.842 24.96 195.362 24.96 195.882 25.22C196.662 25.22 197.442 25.48 198.222 25.48C202.642 25.48 207.322 25.48 211.742 25.74C214.342 25.74 216.942 25.74 219.282 25.74C220.322 25.74 221.362 25.74 222.402 25.74C223.702 25.74 225.002 25.74 226.042 26H228.902V28.86C228.902 29.12 228.902 29.64 228.902 30.16V30.42C228.642 43.16 228.902 56.42 229.162 67.86C229.422 79.3 229.422 111.28 229.422 137.02C229.422 152.62 229.422 166.14 229.422 172.38C229.422 174.46 229.422 177.84 229.162 179.66C229.162 180.44 229.162 180.96 229.162 180.96C229.162 181.48 229.682 182 230.202 182H255.942C256.462 182 256.982 181.48 256.982 180.96V25.22H259.842C264.002 25.22 268.942 25.22 273.882 25.22C278.042 25.22 281.942 25.22 284.542 25.22C285.582 25.22 286.882 25.22 288.182 24.96H288.702H293.122C293.642 24.96 294.162 24.44 294.162 23.92V1.3C294.162 0.780005 293.642 0.259996 293.122 0.259996Z" fill="black"/>
<path d="M400.078 156.52H395.398L395.138 156.26C394.878 156.26 394.618 156.26 394.098 156.26C391.758 156 389.418 156 387.338 156H386.038C379.018 156 371.998 156 365.758 156H365.238C358.218 156 350.938 156 343.918 155.74C341.578 155.74 339.238 155.74 337.158 155.48H336.118L334.298 153.66V98.54H380.838C382.138 98.54 383.178 97.24 383.178 95.94L383.438 89.18C383.438 87.62 383.438 85.8 383.438 83.72H383.178V75.4C383.178 74.1 382.138 72.8 380.838 72.8H346.258H343.918C343.138 72.8 342.358 72.8 341.578 72.8H341.318C339.758 72.8 338.718 72.8 337.418 72.8H334.818L334.558 70.2C334.558 68.12 334.558 66.04 334.558 64.48C334.558 60.84 334.558 57.46 334.558 54.08C334.818 47.58 334.818 40.82 334.558 34.32C334.558 31.98 334.558 30.16 334.558 28.86L334.818 26H394.358C395.658 26 396.698 24.96 396.698 23.4V14.04C396.958 13 396.958 11.96 396.698 11.18V2.86001C396.698 1.56001 395.658 0.259996 394.358 0.259996H334.298C328.578 0.259996 323.378 0.259996 317.918 0.259996C317.658 0.259996 317.658 0.259996 317.398 0.259996H317.138H311.158C309.858 0.259996 308.818 1.56001 308.818 2.86001V179.4C308.818 180.96 309.858 182 311.158 182H317.138C317.138 182 317.398 182 317.658 182C320.258 182 326.498 182 335.858 182C350.418 182 370.438 182 383.698 182H400.078C401.638 182 402.678 180.96 402.678 179.4V158.86C402.678 157.56 401.638 156.52 400.078 156.52Z" fill="black"/>
</svg>
