<svg width="931" height="210" viewBox="0 0 931 210" fill="none" xmlns="http://www.w3.org/2000/svg">
<path d="M22.2113 171.88C22.2113 194.24 21.9513 194.5 0.371328 196.06V201H69.5313V196.06C47.9513 194.24 47.4313 194.24 47.4313 171.88V37.7198C47.4313 15.3598 47.6913 15.0998 69.2713 13.5398V8.59978H0.111328V13.5398C21.6913 15.3598 22.2113 15.3598 22.2113 37.7198V171.88Z" fill="black"/>
<path d="M130.859 196.06C112.399 194.24 108.759 190.34 108.759 171.88V46.8198L209.379 200.48V201H218.479V42.9198C218.479 22.3798 223.939 15.0998 240.579 13.5398V8.59978H187.539V13.5398C204.179 14.8398 209.379 22.1198 209.379 42.9198V151.34L116.039 8.59978H77.8188V13.5398C91.3388 15.0998 99.6588 24.4598 99.6588 47.3398V171.88C99.6588 190.34 96.2788 194.5 77.8188 196.06V201H130.859V196.06Z" fill="black"/>
<path d="M329.062 5.99977C283.042 5.99977 253.402 44.2198 253.402 102.2C253.402 165.12 277.842 203.6 324.642 203.6C370.142 203.6 400.302 165.38 400.302 107.66C400.302 44.4798 375.082 5.99977 329.062 5.99977ZM330.882 194.5C295.522 194.5 280.702 141.72 280.702 83.9998C280.702 35.8998 296.562 15.0998 321.262 15.0998C358.442 15.0998 373.782 68.9198 373.782 125.08C373.782 173.96 354.802 194.5 330.882 194.5Z" fill="black"/>
<path d="M537.212 42.9198C543.452 22.8998 551.252 14.8398 565.552 13.5398V8.59978H514.592V13.5398C531.492 15.0998 534.352 21.5998 528.112 42.9198L492.752 164.08L454.272 37.7198C448.032 17.4398 449.072 15.0998 472.472 13.5398V8.59978H404.612V13.5398C420.992 15.3598 420.732 15.6198 427.752 37.7198L479.752 203.6H487.292L537.212 42.9198Z" fill="black"/>
<path d="M673.775 153.42C661.555 187.74 652.195 195.02 631.395 195.02C613.455 195.02 610.595 195.02 610.595 174.48V117.02H653.495V108.7L610.595 110.26V35.1198C610.595 14.5798 610.855 14.5798 631.395 14.5798C650.115 14.5798 652.715 18.9998 663.895 49.9398L669.615 48.3798L664.935 0.279785L659.215 0.799774C657.395 7.03977 654.015 8.59978 647.255 8.59978H563.275V13.5398C584.855 15.3598 585.375 15.3598 585.375 37.7198V171.88C585.375 194.24 584.855 194.24 563.275 196.06V201H651.155C658.695 201 661.815 202.82 663.895 208.8L669.355 209.58L679.495 154.72L673.775 153.42Z" fill="black"/>
<path d="M725.579 101.226H739.791C750.988 101.226 757.764 93.045 757.764 80.9759C757.764 68.8488 750.873 60.7543 739.877 60.7543H725.579V101.226ZM729.886 97.4259V64.5549H739.36C748.203 64.5549 753.371 71.0247 753.371 80.9469C753.371 91.0432 748.06 97.4259 739.36 97.4259H729.886Z" fill="black"/>
<path d="M763.608 101.226H791.314V97.4259H767.915V82.2234H788.989V78.4228H767.915V64.5549H790.31V60.7543H763.608V101.226Z" fill="black"/>
<path d="M810.308 101.981C817.544 101.981 824.406 98.6444 824.406 90.2888C824.406 82.8327 818.922 80.5117 810.423 78.0166C805.313 76.537 800.518 75.2315 800.518 70.3574C800.518 66.0346 804.308 63.8296 809.418 63.8296C815.046 63.8296 818.549 66.4697 819.037 71.6339H823.315C822.798 64.0617 817.859 60 809.591 60C802.528 60 796.211 62.9593 796.211 70.4444C796.211 78.6549 803.877 80.6858 809.332 82.1944C815.563 83.9642 820.099 85.5308 820.099 90.55C820.099 95.5111 815.706 98.1512 810.308 98.1512C804.021 98.1512 799.714 94.5827 799.312 88.6351H795.034C795.35 96.8166 801.15 101.981 810.308 101.981Z" fill="black"/>
<path d="M829.848 101.226H834.155V60.7543H829.848V101.226Z" fill="black"/>
<path d="M857.484 101.981C863.973 101.981 869.399 98.3253 871.811 92.2907H871.466L872.241 101.226H875.17V80.1055H858.604V83.8481H871.15C871.093 91.5074 865.379 98.1222 857.8 98.1222C849.962 98.1222 844.42 90.8401 844.42 80.8308C844.42 71.721 849.129 63.8586 858.431 63.8586C863.714 63.8586 868.452 66.4407 870.318 72.2142H874.797C872.93 64.4679 866.557 60 858.403 60C846.43 60 840.056 69.5741 840.056 80.8889C840.056 93.4222 847.694 101.981 857.484 101.981Z" fill="black"/>
<path d="M882.249 101.226H886.383V64.9321H885.723L906.854 101.226H912.682V60.7543H908.548V97.1067H909.237L888.077 60.7543H882.249V101.226Z" fill="black"/>
<path d="M741.772 151C750.988 151 757.046 145.169 758.712 136.059H754.376C753.199 142.325 748.519 147.112 741.858 147.112C733.302 147.112 728.364 139.192 728.364 129.705C728.364 120.421 733.159 112.878 742.289 112.878C748.203 112.878 752.453 116.04 754.29 121.698H758.625C756.501 113.516 750.357 109.019 742.145 109.019C730.977 109.019 724 117.404 724 129.879C724 141.832 730.345 151 741.772 151Z" fill="black"/>
<path d="M764.01 150.246H791.716V146.445H768.317V131.243H789.391V127.442H768.317V113.574H790.712V109.774H764.01V150.246Z" fill="black"/>
<path d="M797.561 150.246H801.695V113.951H801.035L822.166 150.246H827.994V109.774H823.86V146.126H824.549L803.389 109.774H797.561V150.246Z" fill="black"/>
<path d="M845.955 150.246H850.261V113.574H863.497V109.774H832.748V113.574H845.955V150.246Z" fill="black"/>
<path d="M868.279 150.246H895.985V146.445H872.586V131.243H893.66V127.442H872.586V113.574H894.98V109.774H868.279V150.246Z" fill="black"/>
<path d="M901.83 150.246H906.136V132.838H918.166C923.133 132.838 925.488 135.536 925.488 139.25V145.836C925.488 147.751 925.775 149.23 926.406 150.246H931C930.196 148.911 929.794 147.49 929.794 145.778V139.279C929.794 135.188 928.071 131.968 923.65 130.662V131.243C927.813 129.618 930.311 125.759 930.311 121.146C930.311 114.677 925.258 109.774 918.281 109.774H901.83V150.246ZM906.136 129.038V113.574H918.166C922.76 113.574 926.004 116.853 926.004 121.262C926.004 125.585 922.875 129.038 918.166 129.038H906.136Z" fill="black"/>
<rect x="724" y="167" width="34" height="34" rx="17" fill="#010101"/>
<rect x="724" y="4" width="34" height="34" rx="17" fill="#010101"/>
</svg>
