<svg width="467" height="238" viewBox="0 0 467 238" fill="none" xmlns="http://www.w3.org/2000/svg">
<path d="M57.6275 173V2.1801H74.5275V0.100098H5.36749V2.1801H22.2675V194.84C22.2675 216.16 17.8475 229.94 0.6875 235.4V238C35.2675 229.42 57.6275 208.36 57.6275 173Z" fill="black"/>
<path d="M171.729 186H199.809V183.92H191.489C186.549 183.92 185.249 181.06 185.249 175.86V105.4C185.249 71.3401 170.429 57.3001 132.729 57.3001C99.4489 57.3001 86.9689 73.6801 86.9689 86.9401C86.9689 101.24 96.5889 110.86 116.349 111.64L117.129 110.86C113.489 105.14 111.929 98.3801 111.929 90.0601C111.929 76.0201 114.269 59.1201 132.729 59.1201C150.149 59.1201 150.929 73.4201 150.929 95.5201V123.34L140.009 124.9C102.049 129.84 83.8489 142.06 83.8489 163.9C83.8489 180.28 95.8089 188.6 116.089 188.6C134.549 188.6 145.729 181.32 151.709 171.7C153.269 181.84 159.249 186 171.729 186ZM118.429 160C118.429 145.18 122.849 130.1 140.529 127.24L150.929 125.68V168.58C147.029 176.9 140.789 181.84 132.469 181.84C122.589 181.84 118.429 173.78 118.429 160Z" fill="black"/>
<path d="M271.37 183.92H257.07V90.5801C263.57 70.8201 277.35 61.7201 287.75 61.7201C297.63 61.7201 300.49 67.9601 300.49 80.1801V183.92H286.19V186H349.11V183.92H334.81V98.3801C334.81 66.9201 324.15 57.3001 297.63 57.3001C280.21 57.3001 265.13 64.5801 256.81 84.6001L254.99 59.9001H208.45V61.9801H222.75V183.92H208.45V186H271.37V183.92Z" fill="black"/>
<path d="M360.861 123.08C360.861 169.62 382.181 188.6 420.661 188.6C451.601 188.6 464.601 169.88 464.601 154.8H462.261C462.261 168.58 450.041 183.14 432.361 183.14C403.241 183.14 397.521 161.04 397.521 123.08V113.98H461.741C464.861 108.52 466.421 100.98 466.421 94.2201C466.421 72.6401 453.421 57.3001 420.401 57.3001C382.961 57.3001 360.861 78.1001 360.861 123.08ZM420.401 59.3801C436.261 59.3801 438.601 73.9401 438.601 92.1401C438.601 104.36 436.001 111.9 425.081 111.9H397.521C398.041 79.1401 402.201 59.3801 420.401 59.3801Z" fill="black"/>
</svg>
