<svg width="426" height="426" viewBox="0 0 426 426" fill="none" xmlns="http://www.w3.org/2000/svg">
<path d="M238.789 4.56643C158.918 -15.9806 70.4395 44.3944 24.5195 114.496C-28.1215 194.891 11.0425 324.456 79.8905 382.286C94.9415 394.923 113.281 404.86 135.96 412.524C160.741 420.958 186.64 425.09 212.331 425.09C256.815 425.09 300.53 412.664 335.671 388.692C409.066 338.641 442.982 240.122 416.418 154.332C393.07 79.1134 333.323 28.7124 238.787 4.56243L238.789 4.56643ZM325.832 374.236C274.836 409.025 204.352 417.357 141.592 396.006C121.014 389.006 104.49 380.151 91.1945 368.916C27.8075 315.682 -8.69654 197.136 39.1475 124.056C75.3035 68.8614 142.717 18.1064 206.657 18.1064C216.072 18.1064 225.348 19.1923 234.481 21.5361C322.68 44.1101 378.231 90.5201 399.681 159.536C423.693 236.888 391.912 329.146 325.829 374.226L325.832 374.236Z" fill="#C0B5F5"/>
<path d="M137.39 213.06C141.765 213.06 146.105 212.326 150.163 210.857C162.972 206.201 173.018 194.197 175.819 180.337C180.928 154.892 165.983 137.673 148.835 131.896C131.511 125.947 107.569 130.533 96.1238 154.259V154.294C88.6707 169.657 95.7723 188.032 106.171 199.372C114.253 208.162 125.944 213.06 137.39 213.06V213.06ZM111.874 161.927C118.768 147.716 132.593 144.849 143.269 148.486C152.788 151.74 161.89 160.877 158.632 176.873C157.022 184.924 151.315 191.818 144.179 194.408C135.886 197.346 125.421 194.479 119.12 187.58C112.749 180.58 108.233 169.557 111.874 161.928L111.874 161.927Z" fill="#C0B5F5"/>
<path d="M254.95 197.981C255.79 198.262 256.7 198.403 257.54 198.403C261.251 198.403 264.716 196.024 265.868 192.242C269.825 179.676 273.747 168.789 281.763 162.804C289.009 157.449 299.822 157.031 307.49 161.859C315.154 166.722 319.388 176.699 317.568 185.554C316.623 190.281 319.67 194.898 324.392 195.878C329.049 196.718 333.771 193.741 334.716 189.054C337.97 173.093 330.623 155.874 316.829 147.124C303.075 138.268 284.352 139.073 271.298 148.804C258.068 158.639 252.958 175.054 249.212 187.058C247.744 191.679 250.333 196.542 254.951 197.98L254.95 197.981Z" fill="#C0B5F5"/>
<path d="M329.26 248.661C324.256 247.61 319.846 250.692 318.901 255.38C314.491 276.134 300.003 295.001 281.1 304.556C275.256 307.532 268.674 309.876 260.905 311.872C212.046 324.263 155.765 307.985 121.115 271.376C116.037 266.02 113.517 261.017 114.603 258.356C116.424 253.875 114.252 248.801 109.775 246.981C105.225 245.09 100.146 247.293 98.3963 251.774C95.6697 258.528 95.1775 269.485 108.408 283.415C138.928 315.649 182.642 333.606 226.638 333.606C239.587 333.606 252.536 332.067 265.243 328.844C274.239 326.571 282.009 323.735 289.044 320.2C312.915 308.055 330.521 285.2 336.048 259.02C337.029 254.293 334.017 249.641 329.259 248.661H329.26Z" fill="#C0B5F5"/>
</svg>
