<svg width="59" height="63" viewBox="0 0 59 63" fill="none" xmlns="http://www.w3.org/2000/svg">
<path d="M28.5229 1.48554C28.7515 0.435995 30.2485 0.435991 30.4771 1.48554L33.6346 15.9807C33.7975 16.7285 34.7057 17.0236 35.277 16.5144L46.3516 6.64347C47.1534 5.92875 48.3645 6.80862 47.9325 7.79211L41.9669 21.3749C41.6592 22.0756 42.2205 22.8482 42.982 22.7721L57.7435 21.2958C58.8123 21.1889 59.2749 22.6125 58.3474 23.1543L45.5374 30.6365C44.8765 31.0225 44.8765 31.9775 45.5374 32.3635L58.3474 39.8457C59.2749 40.3875 58.8123 41.8111 57.7435 41.7042L42.982 40.2279C42.2205 40.1518 41.6592 40.9244 41.9669 41.6251L47.9325 55.2079C48.3645 56.1914 47.1534 57.0712 46.3516 56.3565L35.277 46.4856C34.7057 45.9764 33.7975 46.2715 33.6346 47.0193L30.4771 61.5145C30.2485 62.564 28.7515 62.564 28.5229 61.5145L25.3654 47.0193C25.2025 46.2715 24.2943 45.9764 23.723 46.4856L12.6484 56.3565C11.8466 57.0712 10.6355 56.1914 11.0675 55.2079L17.0331 41.6251C17.3408 40.9244 16.7795 40.1518 16.018 40.2279L1.25649 41.7042C0.187663 41.8111 -0.274917 40.3875 0.652613 39.8457L13.4626 32.3635C14.1235 31.9775 14.1235 31.0225 13.4626 30.6365L0.652617 23.1543C-0.274914 22.6125 0.187658 21.1889 1.25649 21.2958L16.018 22.7721C16.7795 22.8482 17.3408 22.0756 17.0331 21.3749L11.0675 7.79211C10.6355 6.80863 11.8466 5.92875 12.6484 6.64347L23.723 16.5144C24.2943 17.0236 25.2025 16.7285 25.3654 15.9807L28.5229 1.48554Z" fill="#87BBD9"/>
</svg>
