<svg width="41" height="22" viewBox="0 0 41 22" fill="none" xmlns="http://www.w3.org/2000/svg">
<path d="M9.44141 6.12109C9.71224 6.12109 9.95443 6.11003 10.168 6.08789C10.3815 6.06576 10.5775 6.03385 10.7559 5.99219C10.9342 5.95052 11.1003 5.89844 11.2539 5.83594C11.4076 5.77344 11.5599 5.70182 11.7109 5.62109V3.34375H9.85938V3.65234H10.8398V5.46875C10.694 5.58333 10.5299 5.67122 10.3477 5.73242C10.1654 5.79362 9.96094 5.82422 9.73438 5.82422C9.42188 5.82422 9.12891 5.76888 8.85547 5.6582C8.58203 5.54753 8.3444 5.38932 8.14258 5.18359C7.94076 4.97786 7.7819 4.72852 7.66602 4.43555C7.55013 4.14258 7.49219 3.8138 7.49219 3.44922C7.49219 3.08724 7.54557 2.75977 7.65234 2.4668C7.75911 2.17383 7.9082 1.92383 8.09961 1.7168C8.29102 1.50977 8.51888 1.35091 8.7832 1.24023C9.04753 1.12956 9.33594 1.07422 9.64844 1.07422C9.99479 1.07422 10.3014 1.17122 10.5684 1.36523C10.8353 1.55924 11.0781 1.86589 11.2969 2.28516L11.6719 2.03516C11.5651 1.86068 11.4375 1.69336 11.2891 1.5332C11.1406 1.37305 10.9707 1.23177 10.7793 1.10938C10.5879 0.986979 10.3757 0.888672 10.1426 0.814453C9.90951 0.740234 9.65625 0.703125 9.38281 0.703125C9.09635 0.703125 8.82552 0.736979 8.57031 0.804688C8.3151 0.872396 8.07943 0.967448 7.86328 1.08984C7.64714 1.21224 7.45312 1.35807 7.28125 1.52734C7.10938 1.69661 6.96354 1.88346 6.84375 2.08789C6.72396 2.29232 6.63216 2.50977 6.56836 2.74023C6.50456 2.9707 6.47266 3.20703 6.47266 3.44922C6.47266 3.69141 6.50651 3.92643 6.57422 4.1543C6.64193 4.38216 6.73763 4.59505 6.86133 4.79297C6.98503 4.99089 7.13542 5.17122 7.3125 5.33398C7.48958 5.49674 7.68815 5.63672 7.9082 5.75391C8.12826 5.87109 8.36719 5.96159 8.625 6.02539C8.88281 6.08919 9.15495 6.12109 9.44141 6.12109ZM16.883 6V5.66406H14.1526V3.34375H15.9807V3.00781H14.1526V1.15625H16.883V0.820312H13.2815V6H16.883ZM20.7739 6.12109C21.0421 6.12109 21.2987 6.08854 21.5434 6.02344C21.7882 5.95833 22.0167 5.86589 22.229 5.74609C22.4412 5.6263 22.6333 5.48307 22.8052 5.31641C22.977 5.14974 23.1248 4.96484 23.2485 4.76172C23.3722 4.55859 23.4673 4.34115 23.5337 4.10938C23.6001 3.8776 23.6333 3.63542 23.6333 3.38281C23.6333 3.13542 23.6001 2.89714 23.5337 2.66797C23.4673 2.4388 23.3722 2.22526 23.2485 2.02734C23.1248 1.82943 22.977 1.64909 22.8052 1.48633C22.6333 1.32357 22.4412 1.18424 22.229 1.06836C22.0167 0.952474 21.7882 0.86263 21.5434 0.798828C21.2987 0.735026 21.0421 0.703125 20.7739 0.703125C20.5083 0.703125 20.2524 0.735026 20.0063 0.798828C19.7602 0.86263 19.5317 0.952474 19.3208 1.06836C19.1098 1.18424 18.9178 1.32357 18.7446 1.48633C18.5714 1.64909 18.4237 1.82943 18.3013 2.02734C18.1789 2.22526 18.0845 2.4388 18.0181 2.66797C17.9516 2.89714 17.9184 3.13542 17.9184 3.38281C17.9184 3.76042 17.992 4.11523 18.1391 4.44727C18.2863 4.7793 18.4881 5.06966 18.7446 5.31836C19.0011 5.56706 19.3032 5.76302 19.6509 5.90625C19.9985 6.04948 20.3729 6.12109 20.7739 6.12109ZM20.7739 5.86328C20.4718 5.86328 20.2069 5.80143 19.979 5.67773C19.7511 5.55404 19.5597 5.38151 19.4048 5.16016C19.2498 4.9388 19.1333 4.67708 19.0552 4.375C18.977 4.07292 18.938 3.74219 18.938 3.38281C18.938 3.02604 18.977 2.69922 19.0552 2.40234C19.1333 2.10547 19.2498 1.84961 19.4048 1.63477C19.5597 1.41992 19.7511 1.25326 19.979 1.13477C20.2069 1.01628 20.4718 0.957031 20.7739 0.957031C21.0708 0.957031 21.3332 1.01628 21.561 1.13477C21.7889 1.25326 21.9809 1.41992 22.1372 1.63477C22.2934 1.84961 22.4113 2.10547 22.4907 2.40234C22.5701 2.69922 22.6098 3.02604 22.6098 3.38281C22.6098 3.74219 22.5701 4.07292 22.4907 4.375C22.4113 4.67708 22.2934 4.9388 22.1372 5.16016C21.9809 5.38151 21.7889 5.55404 21.561 5.67773C21.3332 5.80143 21.0708 5.86328 20.7739 5.86328ZM25.9187 6V3.56641H26.5281L28.3288 6H29.3406L27.4538 3.48828C27.6413 3.44141 27.8132 3.37695 27.9695 3.29492C28.1257 3.21289 28.2592 3.11523 28.3699 3.00195C28.4805 2.88867 28.5665 2.76172 28.6277 2.62109C28.6889 2.48047 28.7195 2.32943 28.7195 2.16797C28.7195 1.97266 28.6797 1.79232 28.6003 1.62695C28.5209 1.46159 28.4031 1.31901 28.2468 1.19922C28.0906 1.07943 27.8952 0.986328 27.6609 0.919922C27.4265 0.853516 27.1544 0.820312 26.8445 0.820312H25.0476V6H25.9187ZM26.4226 3.30469H25.9187V1.14453H26.6843C26.8432 1.14453 26.9896 1.17057 27.1238 1.22266C27.2579 1.27474 27.3738 1.34701 27.4714 1.43945C27.5691 1.5319 27.6446 1.64323 27.698 1.77344C27.7514 1.90365 27.7781 2.04688 27.7781 2.20312C27.7781 2.3724 27.7442 2.52474 27.6765 2.66016C27.6088 2.79557 27.5144 2.91081 27.3933 3.00586C27.2722 3.10091 27.129 3.17448 26.9636 3.22656C26.7982 3.27865 26.6179 3.30469 26.4226 3.30469ZM33.0283 6.12109C33.2991 6.12109 33.5413 6.11003 33.7549 6.08789C33.9684 6.06576 34.1644 6.03385 34.3427 5.99219C34.5211 5.95052 34.6871 5.89844 34.8408 5.83594C34.9944 5.77344 35.1468 5.70182 35.2978 5.62109V3.34375H33.4463V3.65234H34.4267V5.46875C34.2809 5.58333 34.1168 5.67122 33.9345 5.73242C33.7522 5.79362 33.5478 5.82422 33.3213 5.82422C33.0088 5.82422 32.7158 5.76888 32.4424 5.6582C32.1689 5.54753 31.9313 5.38932 31.7295 5.18359C31.5276 4.97786 31.3688 4.72852 31.2529 4.43555C31.137 4.14258 31.0791 3.8138 31.0791 3.44922C31.0791 3.08724 31.1325 2.75977 31.2392 2.4668C31.346 2.17383 31.4951 1.92383 31.6865 1.7168C31.8779 1.50977 32.1058 1.35091 32.3701 1.24023C32.6344 1.12956 32.9228 1.07422 33.2353 1.07422C33.5817 1.07422 33.8883 1.17122 34.1552 1.36523C34.4222 1.55924 34.665 1.86589 34.8838 2.28516L35.2588 2.03516C35.152 1.86068 35.0244 1.69336 34.8759 1.5332C34.7275 1.37305 34.5576 1.23177 34.3662 1.10938C34.1748 0.986979 33.9625 0.888672 33.7295 0.814453C33.4964 0.740234 33.2431 0.703125 32.9697 0.703125C32.6832 0.703125 32.4124 0.736979 32.1572 0.804688C31.902 0.872396 31.6663 0.967448 31.4502 1.08984C31.234 1.21224 31.04 1.35807 30.8681 1.52734C30.6963 1.69661 30.5504 1.88346 30.4306 2.08789C30.3108 2.29232 30.219 2.50977 30.1552 2.74023C30.0914 2.9707 30.0595 3.20703 30.0595 3.44922C30.0595 3.69141 30.0934 3.92643 30.1611 4.1543C30.2288 4.38216 30.3245 4.59505 30.4482 4.79297C30.5719 4.99089 30.7223 5.17122 30.8994 5.33398C31.0765 5.49674 31.275 5.63672 31.4951 5.75391C31.7151 5.87109 31.9541 5.96159 32.2119 6.02539C32.4697 6.08919 32.7418 6.12109 33.0283 6.12109ZM40.4699 6V5.66406H37.7395V3.34375H39.5676V3.00781H37.7395V1.15625H40.4699V0.820312H36.8684V6H40.4699ZM8.33594 13.1211C8.64323 13.1211 8.91276 13.082 9.14453 13.0039C9.3763 12.9258 9.57031 12.8197 9.72656 12.6855C9.88281 12.5514 10 12.3939 10.0781 12.2129C10.1562 12.0319 10.1953 11.8385 10.1953 11.6328C10.1953 11.4505 10.1536 11.2858 10.0703 11.1387C9.98698 10.9915 9.8763 10.8561 9.73828 10.7324C9.60026 10.6087 9.44336 10.4948 9.26758 10.3906C9.0918 10.2865 8.91276 10.1862 8.73047 10.0898C8.54818 9.99349 8.36914 9.89844 8.19336 9.80469C8.01758 9.71094 7.86068 9.61393 7.72266 9.51367C7.58464 9.41341 7.47396 9.30664 7.39062 9.19336C7.30729 9.08008 7.26562 8.95573 7.26562 8.82031C7.26562 8.72396 7.28581 8.62956 7.32617 8.53711C7.36654 8.44466 7.42773 8.36133 7.50977 8.28711C7.5918 8.21289 7.69401 8.15299 7.81641 8.10742C7.9388 8.06185 8.08203 8.03906 8.24609 8.03906C8.43099 8.03906 8.59701 8.06445 8.74414 8.11523C8.89128 8.16602 9.02083 8.23828 9.13281 8.33203C9.24479 8.42578 9.34115 8.53841 9.42188 8.66992C9.5026 8.80143 9.56901 8.94661 9.62109 9.10547L10.0664 8.90234C10.0039 8.70703 9.92188 8.53516 9.82031 8.38672C9.71875 8.23828 9.59505 8.11328 9.44922 8.01172C9.30339 7.91016 9.13411 7.83333 8.94141 7.78125C8.7487 7.72917 8.52995 7.70312 8.28516 7.70312C8.01432 7.70312 7.77409 7.73828 7.56445 7.80859C7.35482 7.87891 7.17839 7.97591 7.03516 8.09961C6.89193 8.22331 6.7832 8.36979 6.70898 8.53906C6.63477 8.70833 6.59766 8.89193 6.59766 9.08984C6.59766 9.28776 6.63867 9.46289 6.7207 9.61523C6.80273 9.76758 6.91016 9.9056 7.04297 10.0293C7.17578 10.153 7.32747 10.265 7.49805 10.3652C7.66862 10.4655 7.84245 10.5612 8.01953 10.6523C8.19661 10.7435 8.37044 10.8346 8.54102 10.9258C8.71159 11.0169 8.86328 11.1139 8.99609 11.2168C9.12891 11.3197 9.23633 11.4329 9.31836 11.5566C9.40039 11.6803 9.44141 11.8216 9.44141 11.9805C9.44141 12.1133 9.41146 12.2298 9.35156 12.3301C9.29167 12.4303 9.21224 12.515 9.11328 12.584C9.01432 12.653 8.90234 12.7051 8.77734 12.7402C8.65234 12.7754 8.52604 12.793 8.39844 12.793C8.22917 12.793 8.06966 12.7682 7.91992 12.7188C7.77018 12.6693 7.63411 12.5983 7.51172 12.5059C7.38932 12.4134 7.2819 12.3008 7.18945 12.168C7.09701 12.0352 7.02344 11.8841 6.96875 11.7148L6.50391 11.9062C6.57161 12.099 6.65885 12.2702 6.76562 12.4199C6.8724 12.5697 7.00065 12.6966 7.15039 12.8008C7.30013 12.9049 7.47266 12.9844 7.66797 13.0391C7.86328 13.0938 8.08594 13.1211 8.33594 13.1211ZM11.3987 13L12.2151 11.2734H14.4377L15.2268 13H16.1135L13.676 7.70312H13.4573L10.9612 13H11.3987ZM14.2776 10.9375H12.3674L13.3362 8.88672L14.2776 10.9375ZM17.9458 13V7.82031H17.0747V13H17.9458ZM23.9031 13.1211V7.82031H23.5202V11.6094H23.4812L20.0866 7.82031H19.5984V13H19.9929V8.91016H20.0241L23.6999 13.1211H23.9031ZM27.747 13V8.15625H29.622V7.82031H25.0009V8.15625H26.8759V13H27.747ZM7.57422 20V17.6055C7.6237 17.6159 7.6875 17.6263 7.76562 17.6367C7.84375 17.6471 7.92839 17.6562 8.01953 17.6641C8.11068 17.6719 8.20573 17.6777 8.30469 17.6816C8.40365 17.6855 8.4987 17.6875 8.58984 17.6875C8.80078 17.6875 9.00781 17.6595 9.21094 17.6035C9.41406 17.5475 9.5957 17.4622 9.75586 17.3477C9.91602 17.2331 10.0449 17.0885 10.1426 16.9141C10.2402 16.7396 10.2891 16.5352 10.2891 16.3008C10.2891 16.0638 10.2389 15.8535 10.1387 15.6699C10.0384 15.4863 9.90039 15.3314 9.72461 15.2051C9.54883 15.0788 9.34245 14.9831 9.10547 14.918C8.86849 14.8529 8.61458 14.8203 8.34375 14.8203H6.70312V20H7.57422ZM8.23438 17.4297C8.11719 17.4297 8.0026 17.4186 7.89062 17.3965C7.77865 17.3743 7.67318 17.3464 7.57422 17.3125V15.2031H8.19141C8.35286 15.2031 8.50456 15.2305 8.64648 15.2852C8.78841 15.3398 8.91211 15.4173 9.01758 15.5176C9.12305 15.6178 9.20573 15.7383 9.26562 15.8789C9.32552 16.0195 9.35547 16.1771 9.35547 16.3516C9.35547 16.5 9.33268 16.64 9.28711 16.7715C9.24154 16.903 9.17188 17.0176 9.07812 17.1152C8.98438 17.2129 8.86719 17.2897 8.72656 17.3457C8.58594 17.4017 8.42188 17.4297 8.23438 17.4297ZM12.4416 20V14.8203H11.5705V20H12.4416ZM17.6958 20V19.6641H14.9653V17.3438H16.7934V17.0078H14.9653V15.1562H17.6958V14.8203H14.0942V20H17.6958ZM19.8327 20V17.5664H20.4421L22.2429 20H23.2546L21.3679 17.4883C21.5554 17.4414 21.7273 17.377 21.8835 17.2949C22.0398 17.2129 22.1732 17.1152 22.2839 17.002C22.3946 16.8887 22.4805 16.7617 22.5417 16.6211C22.6029 16.4805 22.6335 16.3294 22.6335 16.168C22.6335 15.9727 22.5938 15.7923 22.5144 15.627C22.435 15.4616 22.3171 15.319 22.1609 15.1992C22.0046 15.0794 21.8093 14.9863 21.5749 14.9199C21.3406 14.8535 21.0684 14.8203 20.7585 14.8203H18.9616V20H19.8327ZM20.3366 17.3047H19.8327V15.1445H20.5984C20.7572 15.1445 20.9037 15.1706 21.0378 15.2227C21.1719 15.2747 21.2878 15.347 21.3855 15.4395C21.4831 15.5319 21.5587 15.6432 21.612 15.7734C21.6654 15.9036 21.6921 16.0469 21.6921 16.2031C21.6921 16.3724 21.6583 16.5247 21.5906 16.6602C21.5228 16.7956 21.4284 16.9108 21.3074 17.0059C21.1863 17.1009 21.043 17.1745 20.8777 17.2266C20.7123 17.2786 20.532 17.3047 20.3366 17.3047ZM25.0752 20V17.5664H25.6845L27.4853 20H28.497L26.6103 17.4883C26.7978 17.4414 26.9697 17.377 27.1259 17.2949C27.2822 17.2129 27.4157 17.1152 27.5263 17.002C27.637 16.8887 27.723 16.7617 27.7841 16.6211C27.8453 16.4805 27.8759 16.3294 27.8759 16.168C27.8759 15.9727 27.8362 15.7923 27.7568 15.627C27.6774 15.4616 27.5595 15.319 27.4033 15.1992C27.247 15.0794 27.0517 14.9863 26.8174 14.9199C26.583 14.8535 26.3108 14.8203 26.0009 14.8203H24.2041V20H25.0752ZM25.5791 17.3047H25.0752V15.1445H25.8408C25.9996 15.1445 26.1461 15.1706 26.2802 15.2227C26.4144 15.2747 26.5302 15.347 26.6279 15.4395C26.7256 15.5319 26.8011 15.6432 26.8545 15.7734C26.9078 15.9036 26.9345 16.0469 26.9345 16.2031C26.9345 16.3724 26.9007 16.5247 26.833 16.6602C26.7653 16.7956 26.6709 16.9108 26.5498 17.0059C26.4287 17.1009 26.2855 17.1745 26.1201 17.2266C25.9547 17.2786 25.7744 17.3047 25.5791 17.3047ZM33.0481 20V19.6641H30.3176V17.3438H32.1457V17.0078H30.3176V15.1562H33.0481V14.8203H29.4465V20H33.0481Z" fill="black"/>
<path d="M2 1H0V21H2V1Z" fill="black"/>
</svg>
