<svg width="56" height="12" viewBox="0 0 56 12" fill="none" xmlns="http://www.w3.org/2000/svg">
<path d="M8.03809 11.0005C8.43359 11.0005 8.79248 10.915 9.11475 10.7441C9.43701 10.5732 9.71289 10.3462 9.94238 10.063C10.1719 9.77979 10.3489 9.46118 10.4734 9.10718C10.5979 8.75317 10.6602 8.39062 10.6602 8.01953C10.6602 7.55078 10.571 7.12354 10.3928 6.73779C10.2146 6.35205 9.97168 6.02612 9.66406 5.76001C9.35645 5.4939 9.00732 5.29492 8.6167 5.16309C8.9292 4.91406 9.17212 4.61255 9.34546 4.25854C9.5188 3.90454 9.60547 3.52734 9.60547 3.12695C9.60547 2.64844 9.48706 2.21021 9.25024 1.81226C9.01343 1.41431 8.69604 1.09692 8.2981 0.860107C7.957 0.657122 7.5863 0.541129 7.186 0.512131L6.9834 0.504883H0.845703C0.845703 0.709961 0.882324 0.88208 0.955566 1.02124C1.02881 1.1604 1.10938 1.29102 1.19727 1.41309C1.28027 1.52051 1.35474 1.63403 1.42065 1.75366C1.48657 1.87329 1.52441 2.01367 1.53418 2.1748V9.33789C1.52441 9.49902 1.48657 9.6394 1.42065 9.75903C1.35474 9.87866 1.28027 9.99219 1.19727 10.0996C1.10938 10.2168 1.02881 10.345 0.955566 10.4841C0.882324 10.6233 0.845703 10.7954 0.845703 11.0005H8.03809ZM5.60645 4.74561L4.12695 4.51123V1.51562H5.60645C5.89941 1.51562 6.16919 1.58887 6.41577 1.73535C6.66235 1.88184 6.85767 2.07715 7.00171 2.32129C7.14575 2.56543 7.21777 2.83398 7.21777 3.12695C7.21777 3.4248 7.14453 3.70679 6.99805 3.9729C6.85156 4.23901 6.65625 4.44531 6.41211 4.5918C6.16797 4.73828 5.89941 4.78955 5.60645 4.74561ZM6.05322 9.85791H4.12695L4.13428 5.36816C4.38818 5.41699 4.67139 5.49146 4.98389 5.59155C5.29639 5.69165 5.61011 5.81738 5.92505 5.96875C6.23999 6.12012 6.52808 6.29712 6.78931 6.49976C7.05054 6.70239 7.26294 6.93066 7.42651 7.18457C7.59009 7.43848 7.67188 7.7168 7.67188 8.01953C7.67188 8.35645 7.59863 8.66406 7.45215 8.94238C7.30566 9.2207 7.10913 9.44287 6.86255 9.60889C6.61597 9.7749 6.34619 9.85791 6.05322 9.85791ZM17.6289 11.0005C17.6289 10.7954 17.6655 10.6233 17.7388 10.4841C17.812 10.345 17.895 10.2168 17.9878 10.0996C18.0708 9.99219 18.144 9.87744 18.2075 9.75537C18.271 9.6333 18.3076 9.4917 18.3174 9.33057V5.25098C17.7949 5.33887 17.3933 5.51831 17.1125 5.78931C16.8318 6.0603 16.6243 6.38623 16.49 6.76709C16.3557 7.14795 16.2446 7.55078 16.1567 7.97559C16.0884 8.27344 16.0127 8.56885 15.9297 8.86182C15.8467 9.15479 15.7356 9.42944 15.5964 9.68579C15.4573 9.94214 15.2742 10.1692 15.0471 10.3669C14.8201 10.5647 14.5308 10.7197 14.1792 10.832C13.8276 10.9443 13.3931 11.0005 12.8755 11.0005H10.2461C10.8076 10.8149 11.2751 10.5586 11.6487 10.2314C12.0222 9.9043 12.3372 9.53687 12.5935 9.12915C12.8499 8.72144 13.083 8.30762 13.293 7.8877C13.5029 7.46777 13.7251 7.07227 13.9595 6.70117C14.1938 6.33008 14.4771 6.0127 14.8091 5.74902H14.7798C14.2964 5.80762 13.8569 5.71851 13.4614 5.48169C13.0659 5.24487 12.7485 4.91284 12.5093 4.4856C12.3042 4.11938 12.187 3.73434 12.1577 3.33046L12.1504 3.12695C12.1504 2.64355 12.2688 2.2041 12.5056 1.80859C12.7424 1.41309 13.0598 1.09692 13.4578 0.860107C13.7989 0.657122 14.1713 0.541129 14.5752 0.512131L14.7798 0.504883H21.606C21.606 0.714844 21.5693 0.889404 21.4961 1.02856C21.4229 1.16772 21.3398 1.2959 21.2471 1.41309C21.1641 1.52051 21.0908 1.63281 21.0273 1.75C20.9639 1.86719 20.9272 2.00635 20.9175 2.16748V9.33057C20.9272 9.49658 20.9651 9.64063 21.031 9.7627C21.0969 9.88477 21.1714 10.002 21.2544 10.1143C21.3472 10.2314 21.429 10.3596 21.4998 10.4988C21.5706 10.6379 21.606 10.8052 21.606 11.0005H17.6289ZM17.0966 4.74561L18.6493 4.41602V1.44238C17.7118 1.51074 17.0038 1.6731 16.5253 1.92944C16.0468 2.18579 15.7465 2.48364 15.6244 2.823C15.5024 3.16235 15.5048 3.4895 15.6317 3.80444C15.7587 4.11938 15.9577 4.36841 16.2287 4.55151C16.4997 4.73462 16.789 4.79932 17.0966 4.74561ZM27.5791 11.1836C28.2725 11.1836 28.9243 11.0432 29.5347 10.7625C30.145 10.4817 30.6809 10.0923 31.1423 9.59424C31.6038 9.09619 31.9663 8.5188 32.23 7.86206C32.4937 7.20532 32.6255 6.50098 32.6255 5.74902L32.6174 5.42967C32.5851 4.7968 32.456 4.1989 32.23 3.63599C31.9663 2.97925 31.6038 2.40308 31.1423 1.90747C30.6809 1.41187 30.145 1.02246 29.5347 0.739258C28.9243 0.456055 28.2725 0.314453 27.5791 0.314453C26.8809 0.314453 26.2266 0.456055 25.6162 0.739258C25.0059 1.02246 24.47 1.41187 24.0085 1.90747C23.5471 2.40308 23.1858 2.97925 22.9246 3.63599C22.6633 4.29272 22.5327 4.99707 22.5327 5.74902C22.5327 6.50098 22.6633 7.20532 22.9246 7.86206C23.1858 8.5188 23.5471 9.09619 24.0085 9.59424C24.47 10.0923 25.0059 10.4817 25.6162 10.7625C26.2266 11.0432 26.8809 11.1836 27.5791 11.1836ZM28.5298 10.0272C28.1358 10.0882 27.7457 9.99395 27.3594 9.74438C26.9248 9.46362 26.5293 9.03149 26.1729 8.448C25.8164 7.8645 25.5332 7.17969 25.3232 6.39355C25.123 5.60254 25.0364 4.86035 25.0632 4.16699C25.0901 3.47363 25.2231 2.89014 25.4624 2.4165C25.7017 1.94287 26.041 1.64014 26.4805 1.5083C26.9199 1.396 27.3618 1.48022 27.8062 1.76099C28.2505 2.04175 28.6558 2.47266 29.022 3.05371C29.3882 3.63477 29.6763 4.3208 29.8862 5.11182C30.0864 5.90283 30.1682 6.64502 30.1316 7.33838C30.095 8.03174 29.9521 8.61523 29.7031 9.08887C29.4541 9.5625 29.1123 9.86523 28.6777 9.99707L28.5298 10.0272ZM42.3813 11.0078H42.6597V2.1748C42.6743 2.01367 42.7146 1.87085 42.7805 1.74634C42.8464 1.62183 42.9209 1.50342 43.0039 1.39111C43.0918 1.27393 43.1724 1.14697 43.2456 1.01025C43.3188 0.873535 43.3555 0.707519 43.3555 0.512207H40.9604C40.9604 0.722168 40.9983 0.896728 41.074 1.03589C41.1497 1.17505 41.2339 1.30322 41.3267 1.42041C41.4048 1.52783 41.4768 1.64014 41.5427 1.75732C41.6086 1.87451 41.6465 2.01367 41.6562 2.1748V9.19141C40.8945 8.64941 40.2378 7.99146 39.686 7.21753C39.1343 6.4436 38.6606 5.62939 38.2651 4.7749C37.9487 4.09131 37.6683 3.42647 37.4237 2.78037L37.2471 2.29932C37.042 1.7085 36.8271 1.28613 36.6025 1.03223C36.3779 0.77832 36.052 0.624512 35.6248 0.570801C35.1975 0.51709 34.5762 0.497559 33.7607 0.512207H33.0649C33.0649 0.717285 33.1016 0.889404 33.1748 1.02856C33.248 1.16772 33.3311 1.2959 33.4238 1.41309C33.5068 1.52051 33.5813 1.63403 33.6472 1.75366C33.7131 1.87329 33.751 2.01367 33.7607 2.1748V9.33789C33.751 9.49902 33.7131 9.64063 33.6472 9.7627C33.5813 9.88477 33.5068 9.99951 33.4238 10.1069C33.3311 10.2241 33.248 10.3523 33.1748 10.4915C33.1016 10.6306 33.0649 10.8027 33.0649 11.0078H35.46C35.46 10.7979 35.4233 10.6233 35.3501 10.4841C35.2769 10.345 35.1938 10.2168 35.1011 10.0996C35.0181 9.99219 34.9448 9.87866 34.8813 9.75903C34.8179 9.6394 34.7788 9.49902 34.7642 9.33789V3.28809C34.9399 3.7666 35.2134 4.35498 35.5845 5.05322C35.9556 5.75146 36.3962 6.47168 36.9065 7.21387C37.4167 7.95605 37.9685 8.63599 38.5618 9.25366C39.155 9.87134 39.7593 10.3413 40.3745 10.6636C40.7163 10.8345 41.0447 10.937 41.3596 10.9712C41.6746 11.0054 42.0151 11.0176 42.3813 11.0078ZM47.6108 11.0005C47.6108 10.7808 47.5669 10.5903 47.479 10.4292C47.3911 10.2681 47.2886 10.1143 47.1714 9.96777C47.1079 9.88477 47.0469 9.79687 46.9883 9.7041L49.0171 6.95752L50.665 9.46973C50.5625 9.55762 50.4612 9.6626 50.3611 9.78467C50.261 9.90674 50.1768 10.063 50.1084 10.2534C50.04 10.4438 50.0059 10.6929 50.0059 11.0005H55.1548C55.1548 10.7222 55.1121 10.5012 55.0266 10.3376C54.9412 10.1741 54.8325 10.041 54.7007 9.93848C54.5688 9.83594 54.4272 9.74316 54.2759 9.66016C54.0708 9.55273 53.8877 9.41846 53.7266 9.25732L50.687 5.41211L53.0674 2.16748C53.1748 2.04541 53.3018 1.93311 53.4482 1.83057C53.5947 1.72803 53.7461 1.62793 53.9023 1.53027C54.0684 1.43262 54.2234 1.3313 54.3674 1.22632C54.5115 1.12134 54.6287 1.01025 54.719 0.893066C54.8093 0.775879 54.8545 0.646484 54.8545 0.504883H51.478C51.478 0.724609 51.522 0.913818 51.6099 1.07251C51.6978 1.2312 51.7979 1.38135 51.9102 1.52295C51.9736 1.61084 52.0371 1.70117 52.1006 1.79395L50.0132 4.64307L47.9917 1.97705C48.0063 1.96729 48.0186 1.95752 48.0283 1.94775C48.2578 1.80615 48.4604 1.63159 48.6362 1.42407C48.812 1.21655 48.9072 0.910156 48.9219 0.504883H43.9414C43.9414 0.77832 43.9878 0.996826 44.0806 1.1604C44.1733 1.32397 44.2917 1.45459 44.4358 1.55225C44.5798 1.6499 44.7324 1.73779 44.8936 1.81592C45.1133 1.91357 45.3037 2.03809 45.4648 2.18945L48.3872 6.10059L46.0142 9.33057C45.9067 9.45264 45.7786 9.56738 45.6296 9.6748C45.4807 9.78223 45.3281 9.88721 45.1719 9.98975C45.0059 10.0923 44.8521 10.196 44.7104 10.301C44.5688 10.406 44.4529 10.5159 44.3625 10.6306C44.2722 10.7454 44.2271 10.8687 44.2271 11.0005H47.6108Z" fill="black"/>
</svg>
