<svg width="305" height="89" viewBox="0 0 305 89" fill="none" xmlns="http://www.w3.org/2000/svg">
<path d="M55.8802 86.9998H77.6002L114.2 0.839844H91.4002L70.6402 53.5198L67.1602 0.839844H46.5202L23.9602 53.2799L21.9202 0.839844H0.200195L6.0802 86.9998H28.5202L51.8002 32.3999L55.8802 86.9998Z" fill="black"/>
<path d="M131.708 86.9998H147.668L154.748 47.1598C157.388 31.9198 147.428 21.2398 130.388 21.2398C112.868 21.2398 101.348 30.7198 100.148 46.0798H118.028C119.108 39.8398 122.348 36.9599 128.228 36.9599C134.108 36.9599 137.228 40.5598 136.148 46.0798L135.548 49.0799C133.508 48.5999 130.268 48.3599 126.668 48.3599C107.348 48.3599 94.988 57.1198 94.988 70.7999C94.988 81.2399 102.788 88.1998 114.548 88.1998C122.708 88.1998 128.708 85.6799 132.908 80.5199L131.708 86.9998ZM114.068 68.2798C114.068 63.2398 118.268 60.3599 125.828 60.3599C128.348 60.3599 130.988 60.5998 133.628 61.1998L132.908 65.3999C131.948 70.9199 127.628 74.3999 121.628 74.3999C117.308 74.3999 114.068 71.7598 114.068 68.2798Z" fill="black"/>
<path d="M173.813 86.9998L189.053 0.839844H169.253L154.013 86.9998H173.813Z" fill="black"/>
<path d="M238.891 65.7599C238.891 55.4399 231.931 50.8798 221.611 48.4798L211.651 46.1998C208.411 45.4798 206.011 44.1598 206.011 41.1598C206.011 37.6798 209.851 35.8798 214.531 35.8798C219.691 35.8798 223.531 39.3599 223.531 44.6399H242.491C242.491 30.3598 231.931 21.2398 215.611 21.2398C199.771 21.2398 186.931 29.2798 186.931 42.9599C186.931 53.8798 193.171 58.6798 201.811 60.5998L213.691 63.2398C217.411 64.0798 219.451 65.1598 219.451 68.2798C219.451 71.7598 215.371 73.5598 210.931 73.5598C203.611 73.5598 199.771 69.2399 199.771 64.0799H180.691C180.691 78.7199 192.571 88.1998 209.611 88.1998C228.451 88.1998 238.891 78.3599 238.891 65.7599Z" fill="black"/>
<path d="M264.819 52.7998C266.379 44.0398 269.259 39.2398 275.979 39.2398C281.979 39.2398 284.499 43.9198 283.059 52.1998L276.939 86.9998H296.739L303.579 47.8798C306.339 32.1598 298.899 21.2398 285.459 21.2398C278.139 21.2398 271.899 24.7198 267.099 30.4798L272.139 0.839844H254.019L238.899 86.9998H258.699L264.819 52.7998Z" fill="black"/>
</svg>
