<svg width="46" height="17" viewBox="0 0 46 17" fill="none" xmlns="http://www.w3.org/2000/svg">
<g clip-path="url(#clip0_248_127)">
<path d="M7.00781 17C7.82031 17 8.51172 16.7148 9.08203 16.1445C9.65234 15.5742 9.9375 14.8828 9.9375 14.0703V1.76562C9.9375 1.44531 9.82227 1.16992 9.5918 0.939453C9.36133 0.708984 9.08594 0.59375 8.76562 0.59375C8.44531 0.59375 8.16992 0.708984 7.93945 0.939453C7.70898 1.16992 7.59375 1.44531 7.59375 1.76562V14.0703C7.59375 14.2344 7.53711 14.373 7.42383 14.4863C7.31055 14.5996 7.17188 14.6562 7.00781 14.6562C6.84375 14.6562 6.70508 14.5996 6.5918 14.4863C6.47852 14.373 6.42188 14.2344 6.42188 14.0703V5.28125C6.42188 4.96094 6.30664 4.68555 6.07617 4.45508C5.8457 4.22461 5.57031 4.10938 5.25 4.10938C4.92969 4.10938 4.6543 4.22461 4.42383 4.45508C4.19336 4.68555 4.07812 4.96094 4.07812 5.28125V14.0703C4.07812 14.2344 4.02148 14.373 3.9082 14.4863C3.79492 14.5996 3.65625 14.6562 3.49219 14.6562C3.32812 14.6562 3.18945 14.5996 3.07617 14.4863C2.96289 14.373 2.90625 14.2344 2.90625 14.0703V1.76562C2.90625 1.44531 2.79102 1.16992 2.56055 0.939453C2.33008 0.708984 2.05469 0.59375 1.73438 0.59375C1.41406 0.59375 1.13867 0.708984 0.908203 0.939453C0.677734 1.16992 0.5625 1.44531 0.5625 1.76562V14.0703C0.5625 14.8828 0.847656 15.5742 1.41797 16.1445C1.98828 16.7148 2.67969 17 3.49219 17C4.15625 17 4.74219 16.8086 5.25 16.4258C5.75781 16.8086 6.34375 17 7.00781 17ZM20.1152 16.8242C20.3926 16.9961 20.6875 17.0469 21 16.9766C21.3047 16.8984 21.543 16.7207 21.7148 16.4434C21.8867 16.166 21.9375 15.8711 21.8672 15.5586L18.6094 1.54297C18.5312 1.23047 18.3535 0.988281 18.0762 0.816406C17.7988 0.644531 17.5039 0.582031 17.1914 0.628906H16.7461C16.4336 0.582031 16.1387 0.644531 15.8613 0.816406C15.584 0.988281 15.4062 1.23047 15.3281 1.54297L12.0703 15.5586C12 15.8711 12.0508 16.166 12.2227 16.4434C12.3945 16.7207 12.6328 16.8984 12.9375 16.9766C13.25 17.0469 13.5449 16.9961 13.8223 16.8242C14.0996 16.6523 14.2773 16.4102 14.3555 16.0977L14.6953 14.6562H19.2422L19.582 16.0977C19.6602 16.4102 19.8379 16.6523 20.1152 16.8242ZM18.7031 12.3125H15.2344L16.9688 4.85938L18.7031 12.3125ZM32.2031 17C32.5234 17 32.7988 16.8848 33.0293 16.6543C33.2598 16.4238 33.375 16.1484 33.375 15.8281V1.76562C33.375 1.44531 33.2598 1.16992 33.0293 0.939453C32.7988 0.708984 32.5234 0.59375 32.2031 0.59375C31.8828 0.59375 31.6074 0.708984 31.377 0.939453C31.1465 1.16992 31.0312 1.44531 31.0312 1.76562V10.8594L26.2266 1.25C26.1719 1.14062 26.0977 1.03516 26.0039 0.933594C25.7695 0.707031 25.4922 0.59375 25.1719 0.59375C24.8516 0.59375 24.5762 0.708984 24.3457 0.939453C24.1152 1.16992 24 1.44531 24 1.76562V15.8281C24 16.1484 24.1152 16.4238 24.3457 16.6543C24.5762 16.8848 24.8516 17 25.1719 17C25.4922 17 25.7676 16.8848 25.998 16.6543C26.2285 16.4238 26.3438 16.1484 26.3438 15.8281V6.73438L31.1484 16.3438C31.2031 16.4531 31.2813 16.5547 31.3828 16.6484C31.6094 16.8828 31.8828 17 32.2031 17ZM40.4062 17C41.7031 17 42.8086 16.543 43.7227 15.6289C44.6367 14.7148 45.0938 13.6094 45.0938 12.3125V5.28125C45.0938 3.98438 44.6367 2.87891 43.7227 1.96484C42.8086 1.05078 41.7031 0.59375 40.4062 0.59375H36.8906C36.5703 0.59375 36.2949 0.708984 36.0645 0.939453C35.834 1.16992 35.7188 1.44531 35.7188 1.76562V15.8281C35.7188 16.1484 35.834 16.4238 36.0645 16.6543C36.2949 16.8848 36.5703 17 36.8906 17H40.4062ZM40.4062 14.6562H38.0625V2.9375H40.4062C41.0547 2.9375 41.6074 3.16602 42.0645 3.62305C42.5215 4.08008 42.75 4.63281 42.75 5.28125V12.3125C42.75 12.9609 42.5215 13.5137 42.0645 13.9707C41.6074 14.4277 41.0547 14.6562 40.4062 14.6562Z" fill="black"/>
</g>
<defs>
<clipPath id="clip0_248_127">
<rect width="46" height="17" fill="white"/>
</clipPath>
</defs>
</svg>
