<svg width="62" height="16" viewBox="0 0 62 16" fill="none" xmlns="http://www.w3.org/2000/svg">
<path d="M30.4717 14.0005V12.2935H28.7925V7.10742C29.8563 6.26628 30.8149 5.8457 31.6685 5.8457C32.0705 5.8457 32.3596 5.97868 32.5359 6.24463C32.7122 6.51058 32.8003 6.94971 32.8003 7.56201V14.0005H36.3535V12.2935H34.7207V7.44141C34.7207 6.30339 34.512 5.46533 34.0945 4.92725C33.677 4.38916 33.0322 4.12012 32.1602 4.12012C31.1087 4.12012 29.9862 4.55615 28.7925 5.42822V4.25H25.1836V5.96631H26.8999V12.2935H25.1836V14.0005H30.4717ZM42.2075 14.1675C43.562 14.1675 44.7279 13.6356 45.7051 12.5718V14.0005H49.3696V12.2935H47.6069V0.0195312H43.8218V1.70801H45.7051V5.56738C45.1732 5.02311 44.6243 4.62419 44.0583 4.37061C43.4924 4.11702 42.894 3.99023 42.2632 3.99023C41.3911 3.99023 40.5809 4.22371 39.8325 4.69067C39.0841 5.15763 38.4981 5.78695 38.0745 6.57861C37.6508 7.37028 37.439 8.23617 37.439 9.17627C37.439 10.0978 37.6384 10.939 38.0374 11.6997C38.4363 12.4604 38.996 13.0619 39.7166 13.5042C40.4371 13.9464 41.2674 14.1675 42.2075 14.1675ZM42.5693 12.4604C41.988 12.4604 41.4622 12.3151 40.9922 12.0244C40.5221 11.7337 40.151 11.3348 39.8789 10.8276C39.6068 10.3205 39.4707 9.75146 39.4707 9.12061C39.4707 8.53304 39.6037 7.98104 39.8696 7.4646C40.1356 6.94816 40.4989 6.53377 40.9597 6.22144C41.4205 5.9091 41.9447 5.75293 42.5322 5.75293C43.1383 5.75293 43.6826 5.89827 44.165 6.18896C44.6475 6.47965 45.0247 6.87549 45.2969 7.37646C45.569 7.87744 45.7051 8.43099 45.7051 9.03711C45.7051 9.63704 45.569 10.1999 45.2969 10.7256C45.0247 11.2513 44.6506 11.6719 44.1743 11.9873C43.6981 12.3027 43.1631 12.4604 42.5693 12.4604ZM55.4556 14.2881C56.4019 14.2881 57.2646 14.0592 58.0439 13.6016C58.8232 13.1439 59.4386 12.5223 59.8901 11.7368C60.3416 10.9513 60.5674 10.0854 60.5674 9.13916C60.5674 8.21143 60.3447 7.35482 59.8994 6.56934C59.4541 5.78385 58.8418 5.15763 58.0625 4.69067C57.2832 4.22371 56.4142 3.99023 55.4556 3.99023C54.466 3.99023 53.5815 4.21134 52.8022 4.65356C52.0229 5.09578 51.4153 5.70654 50.9792 6.48584C50.5432 7.26514 50.3252 8.14958 50.3252 9.13916C50.3252 10.0854 50.5432 10.9513 50.9792 11.7368C51.4153 12.5223 52.026 13.1439 52.8115 13.6016C53.597 14.0592 54.4784 14.2881 55.4556 14.2881ZM55.4556 12.4233C54.8866 12.4233 54.3608 12.2749 53.8784 11.978C53.396 11.6812 53.0187 11.2791 52.7466 10.772C52.4744 10.2648 52.3384 9.72054 52.3384 9.13916C52.3384 8.55778 52.4744 8.01351 52.7466 7.50635C53.0187 6.99919 53.3929 6.59562 53.8691 6.29565C54.3454 5.99569 54.868 5.8457 55.437 5.8457C56.0184 5.8457 56.5472 5.99878 57.0234 6.30493C57.4997 6.61108 57.8708 7.01465 58.1367 7.51562C58.4027 8.0166 58.5356 8.55778 58.5356 9.13916C58.5356 9.73291 58.4027 10.2803 58.1367 10.7812C57.8708 11.2822 57.4997 11.6812 57.0234 11.978C56.5472 12.2749 56.0246 12.4233 55.4556 12.4233Z" fill="black"/>
<path d="M5.60352 14.0005V12.2563H3.95215V7.45996H10.0288V12.2563H8.396V14.0005H13.749V12.2563H12.1348V1.76367H13.749V0.0195312H8.396V1.76367H10.0288V5.71582H3.95215V1.76367H5.60352V0.0195312H0.259766V1.76367H1.83691V12.2563H0.259766V14.0005H5.60352Z" fill="black"/>
<path d="M23 12H16V14H23V12Z" fill="black"/>
<path d="M23 8H16V10H23V8Z" fill="black"/>
<path d="M23 4H16V6H23V4Z" fill="black"/>
</svg>
