<svg width="63" height="14" viewBox="0 0 63 14" fill="none" xmlns="http://www.w3.org/2000/svg">
<path d="M10.7289 13.1189C11.1199 13.1189 11.6809 13.0849 12.0889 12.9999V12.6429C11.3749 12.6429 10.7459 12.1499 10.0319 11.1299L7.29494 7.16892C8.89294 6.65892 10.1679 5.57092 10.1679 3.70092C10.1679 1.60992 8.46794 0.623924 5.40794 0.623924H0.460938V0.980927C1.66794 1.08293 2.00794 1.21892 2.00794 2.22192V11.4019C2.00794 12.4049 1.66794 12.5409 0.460938 12.6429V12.9999H5.22094V12.6429C4.08194 12.5409 3.74194 12.4049 3.74194 11.4019V7.49192H4.94894C5.44194 7.49192 5.66294 7.61092 5.86694 7.91692L8.39994 11.7929C9.07994 12.8469 9.69194 13.1189 10.7289 13.1189ZM5.22094 6.91393C4.86394 6.91393 4.13294 6.86292 3.74194 6.77792V1.23592H4.88094C7.12494 1.23592 8.33194 2.17093 8.33194 3.95592C8.33194 5.65593 7.31194 6.91393 5.22094 6.91393ZM18.0829 13.2039C21.7549 13.2039 24.2199 10.6369 24.2199 6.72692C24.2199 2.76592 21.8059 0.419922 18.2189 0.419922C14.5469 0.419922 12.0649 2.98693 12.0649 6.89693C12.0649 10.8579 14.4789 13.2039 18.0829 13.2039ZM18.2529 12.6089C15.6859 12.6089 14.0029 10.3649 14.0029 6.67593C14.0029 3.15693 15.4819 1.01492 18.0319 1.01492C20.5989 1.01492 22.2989 3.25892 22.2989 6.94792C22.2989 10.4669 20.8029 12.6089 18.2529 12.6089ZM29.3299 12.9999V12.6429C28.0719 12.5409 27.6469 12.1159 27.6469 11.0619V2.86792L35.0589 12.9999H35.9939V2.56192C35.9939 1.50792 36.2999 1.08293 37.4559 0.980927V0.623924H33.4949V0.980927C34.7699 1.08293 35.1779 1.50792 35.1779 2.56192V10.3139L28.1569 0.623924H25.2159V0.980927C26.3719 1.08293 26.8479 1.55892 26.8479 2.56192V11.0619C26.8479 12.1159 26.4739 12.5409 25.2159 12.6429V12.9999H29.3299ZM43.3819 12.9999C47.7169 12.9999 50.2499 10.6709 50.2499 6.67593C50.2499 2.74893 47.7169 0.623924 43.6709 0.623924H38.2479V0.980927C39.4549 1.08293 39.7949 1.21892 39.7949 2.22192V11.4019C39.7949 12.4049 39.4549 12.5409 38.2479 12.6429V12.9999H43.3819ZM43.5859 12.3879C42.5999 12.3879 41.9539 12.3369 41.5289 12.2349V1.23592H43.3139C46.4929 1.23592 48.3119 3.25893 48.3119 6.82893C48.3119 10.5009 46.7309 12.3879 43.5859 12.3879ZM54.1359 12.9999V12.6429C52.7079 12.5239 52.1639 12.0819 52.5889 11.0109L53.3369 9.08992H58.4029L59.2529 11.2999C59.6099 12.2349 59.3549 12.5239 57.9269 12.6429V12.9999H62.5849V12.6429C61.6839 12.5239 61.4459 12.1159 61.1229 11.2999L56.9239 0.623924H55.8359L51.6539 11.2319C51.3309 12.0649 51.0419 12.5239 50.1409 12.6429V12.9999H54.1359ZM58.1479 8.46092H53.5749L55.8699 2.57893L58.1479 8.46092Z" fill="black"/>
</svg>
