<svg width="74" height="23" viewBox="0 0 74 23" fill="none" xmlns="http://www.w3.org/2000/svg">
<path d="M7.28949 18.2744C8.01123 18.2744 9.16192 18.2468 10.0964 17.9862C10.8007 17.7898 11.3971 17.425 11.9192 16.8707C12.803 15.933 12.9806 14.4769 12.3412 13.4083C11.7186 12.3671 10.8885 11.7576 9.80431 11.5453C9.02346 11.3926 8.2157 11.325 7.43462 11.2596L7.22555 11.2422C6.8794 11.2129 6.52773 11.1989 6.18733 11.1853C5.78069 11.169 5.30229 11.2615 4.97132 10.9691C4.62356 10.6619 4.55824 10.1625 4.97638 9.91183C5.77379 9.43435 7.1531 9.51025 7.6039 9.58063C8.17407 9.66987 8.885 10.0284 9.36961 10.3964C9.48806 10.4861 9.61111 10.5687 9.74152 10.6561L9.76452 10.6715C9.89171 10.7569 10.058 10.7596 10.1884 10.6791C10.2931 10.614 10.4115 10.5402 10.5201 10.4604C11.0394 10.0777 11.4626 9.75865 11.8515 9.45643C11.9164 9.40583 11.9576 9.32763 11.9642 9.24161C11.9711 9.15306 11.9417 9.06658 11.8835 9.00448C11.7897 8.90489 11.6459 8.7593 11.4812 8.64154C10.6751 8.06539 9.75348 7.6668 8.66443 7.423C7.70303 7.20749 6.71748 7.24153 5.7639 7.27465L5.65948 7.27833C4.94073 7.30317 4.19553 7.48211 3.38202 7.82596C2.2265 8.31402 1.58802 9.13558 1.48452 10.2679L1.48038 10.2959C1.47808 10.3086 1.47624 10.3212 1.47509 10.3339C1.4123 11.0393 1.57652 11.6456 1.96338 12.1355C2.40176 12.6912 2.95422 13.0805 3.60512 13.2933C4.41978 13.5596 5.10817 13.6963 5.77126 13.7234C6.20803 13.7413 6.65216 13.7653 7.0818 13.7887C7.44382 13.8083 7.80607 13.8278 8.16832 13.8441C8.57933 13.8628 8.9586 13.984 9.32821 14.2147C9.56971 14.3656 9.69368 14.6094 9.66884 14.8835C9.64331 15.1632 9.46552 15.415 9.22586 15.5098C7.89876 16.0356 6.84329 16.0096 5.88902 15.7715C5.21466 15.6032 4.34043 15.1577 4.00141 14.7382C3.93126 14.6512 3.85145 14.5732 3.7744 14.4978C3.71092 14.4357 3.64537 14.3715 3.58695 14.3039C3.45746 14.154 3.26794 14.1208 3.09199 14.2181C3.00413 14.2667 2.99309 14.2747 2.93122 14.3196C2.88108 14.3561 2.79552 14.4185 2.60232 14.5505C2.36726 14.7112 2.13657 14.8867 1.9206 15.053C1.87805 15.0857 1.83435 15.1177 1.79042 15.1501C1.67519 15.2347 1.55582 15.3224 1.45163 15.4249C1.24509 15.6285 1.23221 15.8824 1.41759 16.1046C1.54455 16.2566 1.67611 16.3845 1.80882 16.4852C2.06596 16.6803 2.3415 16.8852 2.63452 17.0605C4.01912 17.8894 5.38486 18.2491 7.06317 18.2728C7.13263 18.2737 7.2083 18.2744 7.28949 18.2744ZM13.8764 18C13.9254 18 14.0599 17.9984 14.2373 17.9963C14.5366 17.9927 14.9703 17.9875 15.3168 17.9865L15.6259 17.9869C15.6699 17.9873 15.7093 17.9878 15.7433 17.9885C15.8231 17.9901 15.8956 17.9924 15.9613 17.9947C16.2656 18.0048 16.4328 18.0108 16.5391 17.908C16.6458 17.8048 16.6618 17.6152 16.6639 17.2527L16.6647 15.8847C16.6658 14.9412 16.6667 14.0502 16.6578 13.0465C16.6536 12.5676 16.7077 12.1265 16.819 11.7355C17.132 10.6354 18.0438 10.0462 19.318 10.1163C21.5832 10.2426 21.5993 11.8673 21.615 13.4387L21.6157 13.4934C21.6283 14.7508 21.6357 15.5098 21.6389 16.7877L21.638 16.9692C21.6368 17.1088 21.6357 17.2527 21.643 17.3953C21.6607 17.747 21.6483 17.9947 22.0885 17.9947H24.2151C24.5107 17.9938 24.6664 17.8268 24.6774 17.4984C24.6857 17.2603 24.6749 17.052 24.6678 16.8187L24.6627 16.6541C24.6553 16.3873 24.6516 15.8761 24.6506 15.2822L24.6505 14.6667L24.6521 14.0321C24.6552 13.189 24.662 12.3907 24.6703 12.0207C24.6875 11.2589 24.5433 10.436 24.2846 9.8196C24.004 9.15053 23.5063 8.57323 22.8457 8.14957C21.9531 7.57733 20.8452 7.27304 19.6409 7.26913C19.435 7.27143 19.2209 7.28155 19.0213 7.30731C18.4711 7.37884 17.9524 7.55525 17.4803 7.83217C17.202 7.9957 16.995 8.1475 16.8291 8.30965C16.727 8.4097 16.6403 8.51527 16.5713 8.62291L16.5557 8.6466C16.5419 8.66753 16.5287 8.68777 16.5166 8.70686C16.5207 8.62084 16.5269 8.53413 16.5308 8.47939C16.5345 8.42764 16.5373 8.389 16.5373 8.37451C16.5384 6.9768 16.5423 5.6014 16.5483 4.50177C16.5488 4.43691 16.5577 4.37182 16.5672 4.30305C16.5761 4.23819 16.5853 4.17103 16.5869 4.10295L16.5945 3.78624C16.6056 3.36143 16.6168 2.92236 16.6083 2.48996C16.6019 2.16566 16.4333 1.99201 16.0927 1.95889L16.0713 1.95682C16.0069 1.95015 15.9406 1.94371 15.8746 1.95682C15.4942 2.03341 15.1211 1.99891 14.7267 1.96234L14.6892 1.95889C14.5165 1.94279 14.3451 1.96303 14.1793 1.98235C14.1101 1.9904 14.0422 1.99845 13.9769 2.00328L13.9521 2.00512L13.9355 2.02398C13.7124 2.27744 13.7073 2.54838 13.7025 2.81081L13.6972 3.0629C13.6834 3.72001 13.6694 4.39942 13.6655 5.06826C13.6609 5.87557 13.6586 6.6831 13.6565 7.49063C13.6542 8.31817 13.6519 9.1457 13.6473 9.97324C13.6464 10.106 13.6025 12.1999 13.6172 12.4025C13.6358 12.6599 13.6551 12.9258 13.656 13.1866C13.6579 13.6185 13.6181 14.5875 13.5831 15.4424C13.5475 16.3079 13.5169 17.0372 13.5272 17.2148C13.53 17.2636 13.53 17.3121 13.5302 17.3606C13.5305 17.4232 13.5305 17.4878 13.5364 17.5524C13.5585 17.7949 13.688 17.9703 13.8764 18ZM31.4975 18.2744C33.4263 18.2744 35.2339 17.4761 36.3558 16.0866C37.1486 15.1048 37.5829 13.8646 37.5474 12.684C37.5049 11.2721 36.8549 9.82259 35.8091 8.80668C34.7796 7.8071 33.0406 7.17598 31.391 7.20082C28.166 7.24797 25.7192 9.38122 25.4412 12.3887C25.3015 13.8977 25.8085 15.441 26.7634 16.4165C27.8442 17.5202 29.6451 18.2365 31.3522 18.2728C31.4007 18.2739 31.449 18.2744 31.4975 18.2744ZM31.4695 15.6722C30.7562 15.6483 30.0163 15.3824 29.4395 14.9429C28.7538 14.4203 28.375 13.6139 28.4001 12.7307C28.4263 11.7971 28.8987 10.9307 29.664 10.4132C30.1863 10.06 30.8319 9.87871 31.4655 9.87871C31.9485 9.87871 32.4246 9.98405 32.8336 10.1986C33.5666 10.5832 34.1358 11.2302 34.3566 11.9299C34.4351 12.178 34.4866 12.437 34.5142 12.7215C34.5961 13.5631 34.0392 14.4267 33.5376 14.9109C33.0006 15.4286 32.2659 15.6982 31.4695 15.6722ZM43.5154 22.2428C43.7194 22.2428 43.932 22.2332 44.1764 22.2145C44.7556 22.1706 45.4242 22.1055 46.0335 21.8872C46.3247 21.7828 46.7835 21.5853 47.1193 21.3714C47.2739 21.2727 47.4291 21.163 47.5809 21.0454C48.1412 20.6121 48.5626 20.0505 48.8689 19.3287C49.1336 18.7054 49.2613 17.9526 49.259 17.0589L49.2578 16.4422C49.2567 15.7274 49.2553 14.9879 49.2477 14.2607C49.2454 14.0557 49.2452 13.8504 49.245 13.645C49.244 13.0371 49.2433 12.4085 49.1891 11.7937C49.1272 11.095 49.1339 10.384 49.1403 9.69656C49.1438 9.31706 49.1474 8.92467 49.1396 8.53827C49.1375 8.43914 49.1507 8.34024 49.1642 8.23536C49.1767 8.14106 49.1895 8.04377 49.1902 7.94625C49.1914 7.82826 49.1557 7.7266 49.0874 7.65231C49.0177 7.57664 48.9207 7.53617 48.8068 7.53502C48.1814 7.52996 47.528 7.5426 46.8076 7.5426C46.3108 7.5426 46.367 8.9946 46.3658 8.99759C46.3658 8.99759 44.9361 6.63112 41.6333 7.53778C40.246 7.91865 39.1889 8.85015 38.6178 10.0278C37.5541 12.2208 37.8416 14.9925 39.3014 16.6179C40.2768 17.7038 41.4949 18.3197 42.9098 18.3197C44.2995 18.3197 45.6229 18.0207 46.4028 16.6913C46.4102 17.0625 46.2292 18.1412 46.1455 18.3876C45.8203 19.3432 44.8294 19.633 44.2675 19.7206C43.5196 19.8377 42.9747 19.7664 42.2863 19.6045C41.6044 19.444 41.1943 19.1286 40.7159 18.638C40.4985 18.4149 40.3649 18.3333 40.0845 18.552C39.8948 18.6994 39.8129 18.7836 39.7259 18.8726C39.651 18.9497 39.5732 19.0293 39.4157 19.1601C39.3163 19.2425 39.1999 19.357 39.0872 19.4681C39.0037 19.5502 38.9223 19.6305 38.8519 19.6935C38.7225 19.8097 38.6981 19.995 38.794 20.1344C38.8356 20.1949 38.8795 20.2496 38.9246 20.2977C39.9727 21.4061 40.9836 21.9436 42.4137 22.1524C42.8372 22.2141 43.164 22.2428 43.5154 22.2428ZM43.6286 15.7396C43.4529 15.7341 43.2831 15.7177 43.124 15.691C41.7171 15.4546 40.7524 14.061 40.9282 12.5187C41.0811 11.1761 42.1566 10.1572 43.4855 10.0958C43.5341 10.0935 43.5821 10.0924 43.6302 10.0924C44.3639 10.0924 45.03 10.353 45.5178 10.8341C46.0099 11.3191 46.2871 11.9845 46.3097 12.7246L46.3095 12.9322C46.3348 13.7671 46.048 14.5597 45.1811 15.2729C44.7784 15.6039 44.078 15.7557 43.6286 15.7396ZM54.9651 18.2733C55.3506 18.2733 55.7336 18.219 56.1043 18.1081C56.9512 17.8549 57.5885 17.1693 58.1382 16.6426C58.1776 16.6048 58.2132 16.5943 58.2314 16.6012C58.2521 16.6085 58.2583 16.6442 58.2601 16.6591C58.2785 16.8162 58.3303 17.0952 58.3804 17.2463C58.4197 17.3641 58.4789 17.4517 58.5009 17.5621C58.5603 17.8595 58.7247 17.9754 59.0654 17.9671C59.1472 17.9644 59.2818 17.9687 59.36 17.9738C59.6829 17.994 59.8276 17.9892 60.1084 17.9736C60.2292 17.9669 60.3607 17.9697 60.4874 17.9722C60.5935 17.9745 60.6986 17.9763 60.7991 17.9736C61.2041 17.9618 61.2697 17.7528 61.2957 17.4308C61.3062 17.3017 61.3104 17.1727 61.3083 17.0471C61.2996 16.5492 61.2888 16.0517 61.2782 15.5542C61.2602 14.7214 61.2418 13.86 61.2333 13.0127C61.2218 11.8997 61.2188 10.8974 61.2154 9.83639C61.2138 9.36512 61.2126 8.88626 61.2101 8.38739V8.31839C61.2101 8.20707 61.2101 8.09184 61.1972 7.97845C61.1726 7.76501 61.004 7.59458 60.7869 7.56422C60.6501 7.54513 60.5102 7.54352 60.3911 7.54536C60.1861 7.54789 59.9902 7.54605 59.7954 7.54421C59.5686 7.54237 59.334 7.54053 59.0913 7.5449C59.0522 7.54559 58.9947 7.54398 58.9303 7.54237C58.8022 7.53892 58.6569 7.53524 58.5803 7.54536C58.2654 7.58722 58.2495 7.84804 58.2355 8.07827C58.233 8.1199 58.2348 8.16199 58.2367 8.20408C58.2376 8.2303 58.239 8.25675 58.2387 8.2832C58.2371 8.65718 58.2362 9.01828 58.2351 9.37271C58.2321 10.4388 58.2288 11.4459 58.2137 12.5709C58.2049 13.2215 58.1182 14.1537 57.4687 14.7368C56.5818 15.5333 55.3152 15.6165 54.3168 14.9438C53.2979 14.2572 53.3455 13.084 53.3915 11.9492C53.4014 11.7102 53.4113 11.4632 53.4103 11.2286C53.4083 10.7364 53.4044 10.2444 53.4005 9.75198C53.3968 9.28508 53.3931 8.81818 53.391 8.35105C53.3908 8.29884 53.3908 8.26917 53.3832 8.25008C53.3827 8.23973 53.3825 8.22409 53.3825 8.20017C53.3811 7.75627 53.308 7.5449 52.8956 7.5449C52.7424 7.5449 52.5587 7.54697 52.3703 7.54904C52.1182 7.55203 51.8583 7.55479 51.6536 7.55318C51.5825 7.55249 51.5115 7.55065 51.4404 7.54904C51.3116 7.54628 51.1784 7.54329 51.0471 7.54628C50.5945 7.55732 50.4735 7.67393 50.4592 8.11277C50.4583 8.13968 50.459 8.16636 50.4597 8.19304C50.4599 8.21144 50.4604 8.23007 50.4601 8.24847C50.4558 8.86855 50.4507 9.447 50.4459 10.0142C50.4371 11.0243 50.4286 11.9975 50.4235 13.1015C50.4176 14.3449 50.6931 16.0314 51.9423 17.1009C52.836 17.8664 53.9099 18.2733 54.9651 18.2733ZM65.0044 17.9979C65.426 17.9943 65.6822 17.957 65.6836 17.4754C65.691 17.3677 65.6958 17.2502 65.6995 17.1265C65.7073 16.8346 65.7059 16.5351 65.7045 16.2757L65.7043 16.2223C65.7031 15.7676 65.708 15.3916 65.7126 15.028C65.7186 14.5767 65.7241 14.1503 65.7188 13.5976C65.7158 13.2321 65.7101 12.8669 65.702 12.5124L65.7057 12.5051L65.7031 12.4865C65.7082 11.3521 66.6715 10.171 67.6853 10.0563C68.5515 9.95829 69.2194 10.1131 69.6665 10.517C70.1077 10.9151 70.3268 11.5478 70.3179 12.3981C70.3156 12.6548 70.316 12.9113 70.3167 13.1677C70.3174 13.4265 70.3181 13.6852 70.3156 13.9435C70.3151 13.9859 70.3148 14.0424 70.3145 14.1106L70.314 14.348C70.3138 14.4819 70.3138 14.6369 70.3139 14.805L70.3144 15.3408C70.3146 15.491 70.3148 15.6443 70.3149 15.7965L70.315 16.6651C70.3146 16.9287 70.3138 17.1555 70.3121 17.3128C70.3098 17.5642 70.3324 17.7558 70.4487 17.8731C70.5331 17.9582 70.6587 17.9979 70.8437 17.9979C71.0755 17.9979 71.3149 17.9975 71.556 17.9968C72.0422 17.9956 72.5346 17.9945 72.984 17.9979C73.1464 17.9979 73.2925 17.8519 73.303 17.6799C73.3106 17.575 73.3088 17.4689 73.307 17.3666L73.3063 17.2725C73.3035 17.0356 73.2996 16.844 73.2959 16.6347C73.2895 16.269 73.2835 15.9233 73.2842 15.5105C73.2851 15.0728 73.2915 14.6347 73.2978 14.1967C73.3104 13.3105 73.3235 12.394 73.2902 11.4922C73.2531 10.5002 72.8672 9.47598 72.231 8.68133C72.1556 8.58726 72.0732 8.49595 71.9863 8.41039C71.3766 7.8094 70.478 7.41472 69.4558 7.29903C68.7095 7.21485 67.3092 7.18679 66.3216 7.94556C66.2006 8.03917 65.6815 8.85728 65.3457 9.33269C65.3215 9.21285 65.2983 9.07499 65.2769 8.93233L65.2363 8.64451C65.1855 8.26263 65.1492 7.90912 65.1376 7.83424C65.107 7.63713 64.8814 7.58952 64.6888 7.56997C64.6307 7.56376 64.566 7.56583 64.5037 7.5679C64.4655 7.56928 64.428 7.57043 64.3935 7.56974L64.3105 7.56744C63.9841 7.55847 63.9844 7.55824 63.6722 7.56974L63.5692 7.57319C63.4715 7.5771 63.3824 7.57595 63.3017 7.57549C63.0161 7.5725 62.8097 7.57066 62.695 7.78893C62.6198 7.929 62.5892 8.15348 62.5929 8.53942C62.5947 8.66155 62.608 8.96147 62.6223 9.2791C62.6386 9.64135 62.6554 10.0158 62.6561 10.1517C62.6478 10.4749 62.6547 10.7865 62.6614 11.0881C62.6665 11.325 62.6715 11.5483 62.6694 11.7721C62.6653 12.0863 62.6713 12.4648 62.677 12.8312C62.6837 13.2542 62.6904 13.6917 62.6826 14.0486C62.6717 14.556 62.677 15.0489 62.6823 15.5257C62.6892 16.1763 62.6959 16.7677 62.6637 17.3843C62.6568 17.4459 62.6563 17.5154 62.6623 17.5964C62.6901 17.9519 62.9084 17.9848 63.1913 17.9906C63.5261 17.9959 63.8262 17.9991 64.1128 18.0003L64.3958 18.0009C64.5991 18.0009 64.7995 17.9998 65.0044 17.9979Z" fill="black"/>
<path d="M73 21H51V23H73V21Z" fill="black"/>
</svg>
