<svg width="72" height="16" viewBox="0 0 72 16" fill="none" xmlns="http://www.w3.org/2000/svg">
<path d="M4.79495 14.0026L5.09168 14.0008C6.48502 13.9628 7.73901 13.5195 8.85368 12.6708C9.96834 11.8221 10.7315 10.7328 11.1432 9.40279C11.5548 8.07279 11.5358 6.74596 11.0862 5.42229C10.6365 4.09863 9.84484 3.0283 8.71117 2.2113C7.57751 1.3943 6.31401 0.985794 4.92068 0.985794C3.60334 0.985794 2.39368 1.35312 1.29168 2.08779C0.962347 2.31579 0.781843 2.63246 0.750177 3.0378C0.71851 3.44313 0.854685 3.78513 1.15868 4.0638C1.37402 4.26646 1.62735 4.37729 1.91868 4.39629C2.21001 4.41529 2.48235 4.34246 2.73568 4.1778C3.55901 3.63313 4.46468 3.4273 5.45268 3.5603C6.44068 3.6933 7.26401 4.13346 7.92268 4.88079C8.58134 5.62812 8.90751 6.50213 8.90118 7.50279C8.89484 8.50346 8.56235 9.37746 7.90368 10.1248C7.24501 10.8721 6.42168 11.3091 5.43368 11.4358C4.44568 11.5625 3.53367 11.3471 2.69767 10.7898C2.457 10.6251 2.19102 10.5523 1.89968 10.5713C1.60835 10.5903 1.35501 10.7011 1.13967 10.9038C0.835672 11.1698 0.696339 11.5086 0.721673 11.9203C0.747006 12.332 0.930683 12.6518 1.27268 12.8798C2.42535 13.6651 3.69835 14.0388 5.09168 14.0008L4.79495 14.0026ZM19.2768 13.9818C20.4548 13.9818 21.5442 13.6936 22.5449 13.1173C23.5455 12.541 24.334 11.7525 24.9103 10.7518C25.4867 9.75113 25.7749 8.6618 25.7749 7.4838C25.7749 6.3058 25.4867 5.21963 24.9103 4.2253C24.334 3.23096 23.5455 2.44246 22.5449 1.85979C21.5442 1.27713 20.4548 0.985794 19.2768 0.985794C18.0988 0.985794 17.0095 1.27713 16.0089 1.85979C15.0209 2.44246 14.2355 3.23096 13.6529 4.2253C13.0702 5.21963 12.7788 6.3058 12.7788 7.4838C12.7788 8.6618 13.0702 9.75113 13.6529 10.7518C14.2355 11.7525 15.024 12.541 16.0183 13.1173C17.0127 13.6936 18.0988 13.9818 19.2768 13.9818ZM19.2768 11.4548C18.7448 11.4548 18.2382 11.3535 17.7569 11.1508C17.2755 10.9481 16.848 10.6631 16.4744 10.2958C16.1007 9.92846 15.8125 9.49779 15.6099 9.00379C15.3059 8.26913 15.233 7.50596 15.3914 6.71429C15.5497 5.92263 15.9107 5.24496 16.4744 4.68129C17.038 4.11762 17.7157 3.75663 18.5073 3.5983C19.299 3.43996 20.0654 3.51596 20.8064 3.82629C21.5474 4.13663 22.1395 4.62429 22.5828 5.28929C23.0262 5.95429 23.2479 6.6858 23.2479 7.4838C23.2479 8.5858 22.8615 9.52312 22.0889 10.2958C21.3162 11.0685 20.3788 11.4548 19.2768 11.4548ZM34.9345 15.6348C35.2829 15.6348 35.5805 15.5113 35.8275 15.2643C36.0745 15.0173 36.198 14.7165 36.198 14.3618V2.23979C36.198 1.88513 36.0745 1.5843 35.8275 1.3373C35.5805 1.0903 35.286 0.966797 34.944 0.966797H34.317C34.1524 0.966797 33.9972 0.995292 33.8515 1.05229C33.7059 1.10929 33.576 1.19163 33.462 1.29929C33.348 1.40696 33.253 1.53046 33.177 1.66979L29.643 8.68079V2.2588C29.643 1.90413 29.5195 1.60329 29.2725 1.35629C29.0255 1.10929 28.7279 0.985794 28.3795 0.985794C28.0312 0.985794 27.7335 1.10929 27.4865 1.35629C27.2395 1.60329 27.116 1.90413 27.116 2.2588V12.7278C27.116 13.0825 27.2395 13.3833 27.4865 13.6303C27.7335 13.8773 28.0344 14.0008 28.389 14.0008H29.016C29.2567 14.0008 29.4784 13.9375 29.681 13.8108C29.8837 13.6841 30.042 13.5131 30.156 13.2978L33.671 6.30579V14.3618C33.671 14.7165 33.7945 15.0173 34.0415 15.2643C34.2885 15.5113 34.5862 15.6348 34.9345 15.6348ZM45.3577 15.6348C45.706 15.6348 46.0037 15.5113 46.2507 15.2643C46.4977 15.0173 46.6212 14.7165 46.6212 14.3618V2.23979C46.6212 1.88513 46.4977 1.5843 46.2507 1.3373C46.0037 1.0903 45.7092 0.966797 45.3672 0.966797H44.7402C44.5755 0.966797 44.4204 0.995292 44.2747 1.05229C44.129 1.10929 43.9992 1.19163 43.8852 1.29929C43.7712 1.40696 43.6762 1.53046 43.6002 1.66979L40.0662 8.68079V2.2588C40.0662 1.90413 39.9427 1.60329 39.6957 1.35629C39.4487 1.10929 39.151 0.985794 38.8027 0.985794C38.4544 0.985794 38.1567 1.10929 37.9097 1.35629C37.6627 1.60329 37.5392 1.90413 37.5392 2.2588V12.7278C37.5392 13.0825 37.6627 13.3833 37.9097 13.6303C38.1567 13.8773 38.4575 14.0008 38.8122 14.0008H39.4392C39.6799 14.0008 39.9015 13.9375 40.1042 13.8108C40.3069 13.6841 40.4652 13.5131 40.5792 13.2978L44.0942 6.30579V14.3618C44.0942 14.7165 44.2177 15.0173 44.4647 15.2643C44.7117 15.5113 45.0094 15.6348 45.3577 15.6348ZM54.4604 13.9818C55.6384 13.9818 56.7277 13.6936 57.7284 13.1173C58.7291 12.541 59.5175 11.7525 60.0939 10.7518C60.6702 9.75113 60.9584 8.6618 60.9584 7.4838C60.9584 6.3058 60.6702 5.21963 60.0939 4.2253C59.5175 3.23096 58.7291 2.44246 57.7284 1.85979C56.7277 1.27713 55.6384 0.985794 54.4604 0.985794C53.2824 0.985794 52.193 1.27713 51.1924 1.85979C50.2044 2.44246 49.4191 3.23096 48.8364 4.2253C48.2537 5.21963 47.9624 6.3058 47.9624 7.4838C47.9624 8.6618 48.2537 9.75113 48.8364 10.7518C49.4191 11.7525 50.2075 12.541 51.2019 13.1173C52.1962 13.6936 53.2824 13.9818 54.4604 13.9818ZM54.4604 11.4548C53.9284 11.4548 53.4217 11.3535 52.9404 11.1508C52.459 10.9481 52.0315 10.6631 51.6579 10.2958C51.2842 9.92846 50.9961 9.49779 50.7934 9.00379C50.4894 8.26913 50.4165 7.50596 50.5749 6.71429C50.7332 5.92263 51.0942 5.24496 51.6579 4.68129C52.2215 4.11762 52.8992 3.75663 53.6909 3.5983C54.4825 3.43996 55.2489 3.51596 55.9899 3.82629C56.7309 4.13663 57.323 4.62429 57.7664 5.28929C58.2097 5.95429 58.4314 6.6858 58.4314 7.4838C58.4314 8.5858 58.045 9.52312 57.2724 10.2958C56.4997 11.0685 55.5624 11.4548 54.4604 11.4548ZM70.5646 15.6348C70.8052 15.6348 71.0269 15.5715 71.2296 15.4448C71.4322 15.3181 71.5906 15.1471 71.7046 14.9318C71.9326 14.4631 71.8882 14.0198 71.5716 13.6018L68.7786 9.87779C69.3359 9.63713 69.8267 9.29829 70.2511 8.86129C70.6754 8.42429 70.9984 7.92396 71.2201 7.36029C71.4417 6.79662 71.5526 6.21079 71.5526 5.60279C71.5399 4.32346 71.0681 3.23413 70.1371 2.33479C69.2061 1.43546 68.0946 0.985794 66.8026 0.985794H63.5726C63.2179 0.985794 62.9171 1.10929 62.6701 1.35629C62.4231 1.60329 62.2996 1.90413 62.2996 2.2588V12.7278C62.2996 13.0825 62.4231 13.3833 62.6701 13.6303C62.9171 13.8773 63.2147 14.0008 63.5631 14.0008C63.9114 14.0008 64.2091 13.8773 64.4561 13.6303C64.7031 13.3833 64.8266 13.0825 64.8266 12.7278V10.2768H65.9096L69.5576 15.1218C69.8109 15.4638 70.1466 15.6348 70.5646 15.6348ZM66.8976 7.74979H64.8266V3.51279H66.8976C67.2776 3.51279 67.6322 3.60779 67.9616 3.79779C68.2909 3.98779 68.5506 4.24429 68.7406 4.56729C68.9306 4.89029 69.0256 5.24813 69.0256 5.64079C69.0256 6.22346 68.8166 6.72063 68.3986 7.13229C67.9806 7.54396 67.4802 7.74979 66.8976 7.74979Z" fill="black"/>
</svg>
