<svg width="70" height="16" viewBox="0 0 70 16" fill="none" xmlns="http://www.w3.org/2000/svg">
<path d="M5.90594 14.9991C7.75094 14.9991 9.01094 13.7391 9.01094 11.9091C9.01094 10.9491 8.32094 10.0941 7.58594 9.73406C7.51094 9.70406 7.51094 9.61406 7.58594 9.58406C8.21594 9.26906 8.75594 8.35406 8.75594 7.52906C8.75594 5.84906 7.60094 4.43906 5.90594 4.43906H0.910938C0.865938 4.43906 0.835938 4.46906 0.835938 4.51406V14.9241C0.835938 14.9691 0.865938 14.9991 0.910938 14.9991H5.90594ZM5.65094 8.81906H2.69594C2.65094 8.81906 2.63594 8.78906 2.63594 8.74406V6.14906C2.63594 6.11906 2.65094 6.08906 2.69594 6.08906H5.75594C6.55094 6.08906 6.98594 6.79406 6.98594 7.52906C6.98594 8.24906 6.29594 8.78906 5.65094 8.81906ZM5.65094 13.3491H2.71094C2.66594 13.3491 2.63594 13.3191 2.63594 13.2741V10.5441C2.63594 10.5141 2.63594 10.4691 2.69594 10.4691H5.75594C6.55094 10.4691 7.21094 11.1741 7.21094 11.9091C7.21094 12.6441 6.44594 13.3491 5.65094 13.3491ZM17.7709 14.9991C17.8159 14.9991 17.8459 14.9691 17.8459 14.9241V13.4241C17.8459 13.3791 17.8159 13.3491 17.7709 13.3491H12.2359C12.1909 13.3491 12.1609 13.3191 12.1609 13.2741V10.5441C12.1609 10.4991 12.1909 10.4691 12.2359 10.4691H17.0209C17.0659 10.4691 17.0959 10.4391 17.0959 10.3941V8.89406C17.0959 8.84906 17.0659 8.81906 17.0209 8.81906H12.2359C12.1909 8.81906 12.1609 8.78906 12.1609 8.74406V6.16406C12.1609 6.11906 12.1909 6.08906 12.2359 6.08906H17.7709C17.8159 6.08906 17.8459 6.05906 17.8459 6.01406V4.51406C17.8459 4.46906 17.8159 4.43906 17.7709 4.43906H10.4359C10.3909 4.43906 10.3609 4.46906 10.3609 4.51406V14.9241C10.3609 14.9691 10.3909 14.9991 10.4359 14.9991H17.7709ZM26.2759 14.9991C26.3209 14.9991 26.3509 14.9691 26.3509 14.9241V13.4241C26.3509 13.3791 26.3209 13.3491 26.2759 13.3491H21.1759C21.1309 13.3491 21.1159 13.3341 21.1159 13.2891V4.51406C21.1159 4.46906 21.0859 4.43906 21.0409 4.43906H19.3909C19.3459 4.43906 19.3159 4.46906 19.3159 4.51406V14.9241C19.3159 14.9691 19.3459 14.9991 19.3909 14.9991H26.2759ZM29.1709 14.9991C29.2159 14.9991 29.2459 14.9691 29.2459 14.9241V10.5291C29.2459 10.4991 29.2609 10.4691 29.3059 10.4691H34.1059C34.1509 10.4691 34.1809 10.4391 34.1809 10.3941V8.89406C34.1809 8.84906 34.1509 8.81906 34.1059 8.81906H29.3059C29.2609 8.81906 29.2459 8.80406 29.2459 8.75906V6.14906C29.2459 6.10406 29.2609 6.08906 29.3059 6.08906H34.8559C34.9009 6.08906 34.9309 6.05906 34.9309 6.01406V4.51406C34.9309 4.46906 34.9009 4.43906 34.8559 4.43906H27.5209C27.4759 4.43906 27.4459 4.46906 27.4459 4.51406V14.9241C27.4459 14.9691 27.4759 14.9991 27.5209 14.9991H29.1709ZM40.3009 15.1491C43.4659 15.1491 45.0559 12.8991 45.0559 9.71906C45.0559 6.53906 43.4659 4.28906 40.3009 4.28906C37.1359 4.28906 35.5459 6.53906 35.5459 9.71906C35.5459 12.8991 37.1359 15.1491 40.3009 15.1491ZM40.3009 13.4991C38.4409 13.4991 37.4209 12.0741 37.4209 9.71906C37.4209 7.36406 38.4409 5.93906 40.3009 5.93906C42.1609 5.93906 43.1809 7.36406 43.1809 9.71906C43.1809 12.0741 42.1609 13.4991 40.3009 13.4991ZM48.2659 14.9991C48.3109 14.9991 48.3409 14.9691 48.3409 14.9241V11.0091C48.3409 10.9641 48.3559 10.9491 48.4009 10.9491H50.7109C50.7559 10.9491 50.8009 10.9641 50.8309 11.0241L52.5709 14.9541C52.5859 14.9691 52.6159 14.9991 52.6459 14.9991H54.3709C54.4309 14.9991 54.4759 14.9541 54.4459 14.8941L52.5409 10.6041C52.5259 10.5741 52.5259 10.5591 52.5409 10.5441C53.5009 10.0041 54.1759 8.95406 54.1759 7.69406C54.1759 5.86406 52.7059 4.43906 51.0109 4.43906H46.6159C46.5709 4.43906 46.5409 4.46906 46.5409 4.51406V14.9241C46.5409 14.9691 46.5709 14.9991 46.6159 14.9991H48.2659ZM50.9209 9.29906H48.4159C48.3709 9.29906 48.3409 9.26906 48.3409 9.22406V6.14906C48.3409 6.11906 48.3559 6.08906 48.4009 6.08906H50.8609C51.6559 6.08906 52.3909 6.80906 52.3909 7.69406C52.3909 8.56406 51.6859 9.29906 50.9209 9.29906ZM59.2609 14.9991C59.3059 14.9991 59.3359 14.9691 59.3359 14.9241V6.16406C59.3359 6.11906 59.3659 6.08906 59.4109 6.08906H62.1859C62.2309 6.08906 62.2609 6.05906 62.2609 6.01406V4.51406C62.2609 4.46906 62.2309 4.43906 62.1859 4.43906H54.6859C54.6409 4.43906 54.6109 4.46906 54.6109 4.51406V6.01406C54.6109 6.05906 54.6409 6.08906 54.6859 6.08906H57.4609C57.5059 6.08906 57.5359 6.11906 57.5359 6.16406V14.9241C57.5359 14.9691 57.5659 14.9991 57.6109 14.9991H59.2609Z" fill="black"/>
<path fill-rule="evenodd" clip-rule="evenodd" d="M66.2093 5L66.4419 2.67442L64.9302 4.47674L64.5233 4.06977L66.3256 2.55814L64 2.7907V2.2093L66.3256 2.44186L64.5233 0.930233L64.9302 0.523256L66.4419 2.32558L66.2093 0H66.7907L66.5581 2.32558L68.0698 0.523256L68.4767 0.930233L66.6744 2.44186L69 2.2093V2.7907L66.6744 2.55814L68.4767 4.06977L68.0698 4.47674L66.5581 2.67442L66.7907 5H66.2093Z" fill="black"/>
</svg>
