<svg width="554" height="492" viewBox="0 0 554 492" fill="none" xmlns="http://www.w3.org/2000/svg">
<path d="M429.361 354.802C412.142 350.248 416.905 319.507 434.111 324.056C454.206 329.368 474.298 334.681 494.392 339.996C442.072 283.668 373.237 239.574 296.416 228.136C282.571 226.076 264.636 225.034 247.012 226.843C230.198 278.556 197.737 344.784 160.366 308.631C142.789 291.627 148.609 256.961 161.686 239.177C175.918 219.827 199.486 210.447 222.897 206.264C225.58 196.14 227.615 185.896 228.761 175.7C231.392 152.3 231.733 104.399 206.248 91.3842C186.496 81.3008 158.539 108.548 145.902 120.628C111.66 153.374 83.0732 193.969 59.3122 234.856C52.1536 247.171 23.4554 235.443 30.2475 223.765C59.8515 172.826 96.7988 116.29 146.331 82.9781C217.113 35.3641 265.458 110.552 259.125 178.061C258.667 182.937 256.861 192.043 253.921 203.325C349.522 200.795 441.55 254.2 508.145 321.392C503.178 304.08 498.212 286.767 493.25 269.454C488.245 251.998 513.446 238.119 519.016 257.547C528.907 292.033 538.797 326.518 548.687 361.002C551.216 369.814 545.216 385.444 533.431 382.33C498.733 373.152 464.045 363.981 429.357 354.809L429.361 354.802ZM180.055 279.9C180.024 280.676 180.373 282.898 180.771 285.451C186.06 278.635 194.544 271.172 198.204 265.067C203.911 255.552 208.942 245.405 213.264 234.916C194.757 242.78 181.048 256.657 180.055 279.9L180.055 279.9Z" fill="#F07C4A"/>
</svg>
