<svg width="92" height="92" viewBox="0 0 92 92" fill="none" xmlns="http://www.w3.org/2000/svg">
<mask id="mask0" mask-type="alpha" maskUnits="userSpaceOnUse" x="0" y="0" width="92" height="92">
<rect width="92" height="92" fill="#C4C4C4"/>
</mask>
<g mask="url(#mask0)">
<path d="M85.0598 24.5298C93.8621 39.7758 83.4648 62.2579 61.8367 74.7448C40.2087 87.2318 15.54 84.9951 6.73775 69.7491C-2.06454 54.5031 8.3328 32.0211 29.9608 19.5342C51.5889 7.0472 76.2575 9.28385 85.0598 24.5298Z" fill="url(#paint0_linear)"/>
<path d="M24.904 60.3373C24.904 63.0923 26.0064 65.7344 27.9687 67.6824C29.931 69.6304 32.5925 70.7248 35.3676 70.7248C38.1427 70.7248 40.8042 69.6304 42.7665 67.6824C44.7288 65.7344 45.8312 63.0923 45.8312 60.3373V15.179C45.8312 12.7389 46.8076 10.3988 48.5457 8.67337C50.2837 6.94797 52.641 5.97865 55.099 5.97865C57.5569 5.97865 59.9142 6.94797 61.6523 8.67337C63.3903 10.3988 64.3667 12.7389 64.3667 15.179V32.2493H57.096L64.9647 43.4382L72.8333 32.2493H65.5626V15.179C65.5626 12.4241 64.4602 9.78197 62.4979 7.83394C60.5356 5.8859 57.8741 4.7915 55.099 4.7915C52.3239 4.7915 49.6624 5.8859 47.7001 7.83394C45.7378 9.78197 44.6354 12.4241 44.6354 15.179V60.3373C44.6354 62.7774 43.659 65.1176 41.9209 66.843C40.1829 68.5684 37.8256 69.5377 35.3676 69.5377C32.9097 69.5377 30.5524 68.5684 28.8143 66.843C27.0763 65.1176 26.0999 62.7774 26.0999 60.3373V43.3432H33.3706L25.5019 32.1603L17.6333 43.3432H24.904V60.3373Z" fill="#010101"/>
<path fill-rule="evenodd" clip-rule="evenodd" d="M64.3667 32.2493V15.179C64.3667 12.7389 63.3903 10.3988 61.6522 8.67339C59.9142 6.94798 57.5569 5.97866 55.0989 5.97866C52.641 5.97866 50.2837 6.94798 48.5456 8.67339C46.8076 10.3988 45.8312 12.7389 45.8312 15.179V60.3373C45.8312 63.0923 44.7288 65.7344 42.7665 67.6824C40.8042 69.6305 38.1427 70.7249 35.3676 70.7249C32.5925 70.7249 29.931 69.6305 27.9687 67.6824C26.0064 65.7344 24.904 63.0923 24.904 60.3373V43.3432H17.6333L25.5019 32.1603L33.3705 43.3432H26.0998V60.3373C26.0998 62.7774 27.0762 65.1176 28.8143 66.843C30.5523 68.5684 32.9096 69.5377 35.3676 69.5377C37.8255 69.5377 40.1828 68.5684 41.9209 66.843C43.6589 65.1176 44.6353 62.7774 44.6353 60.3373V15.179C44.6353 12.4241 45.7378 9.78199 47.7001 7.83395C49.6624 5.88591 52.3238 4.79152 55.0989 4.79152C57.8741 4.79152 60.5355 5.88591 62.4978 7.83395C64.4601 9.78199 65.5626 12.4241 65.5626 15.179V32.2493H72.8333L64.9646 43.4382L57.096 32.2493H64.3667ZM65.7159 32.096V15.179C65.7159 12.3831 64.597 9.70184 62.6059 7.72513C60.6147 5.74846 57.9144 4.63818 55.0989 4.63818C52.2835 4.63818 49.5832 5.74846 47.592 7.72513C45.6009 9.70184 44.482 12.3831 44.482 15.179V60.3373C44.482 62.7364 43.522 65.0374 41.8129 66.7342C40.1036 68.4309 37.7852 69.3844 35.3676 69.3844C32.9499 69.3844 30.6315 68.4309 28.9223 66.7342C27.2131 65.0374 26.2532 62.7364 26.2532 60.3373V43.4965H33.6659L25.5019 31.8938L17.3379 43.4965H24.7506V60.3373C24.7506 63.1333 25.8695 65.8145 27.8607 67.7912C29.8518 69.7679 32.5522 70.8782 35.3676 70.8782C38.183 70.8782 40.8833 69.7679 42.8745 67.7912C44.8657 65.8145 45.9845 63.1333 45.9845 60.3373V15.179C45.9845 12.78 46.9445 10.4789 48.6537 8.78221C50.3629 7.08543 52.6813 6.13199 55.0989 6.13199C57.5166 6.13199 59.835 7.08543 61.5442 8.78221C63.2534 10.4789 64.2134 12.78 64.2134 15.179V32.096H56.8007L64.9646 43.7047L73.1286 32.096H65.7159Z" fill="black"/>
</g>
<defs>
<linearGradient id="paint0_linear" x1="61.8367" y1="9.77478" x2="61.8367" y2="74.7448" gradientUnits="userSpaceOnUse">
<stop stop-color="#FDDD33"/>
<stop offset="1" stop-color="#FA4470"/>
</linearGradient>
</defs>
</svg>
