<svg width="92" height="92" viewBox="0 0 92 92" fill="none" xmlns="http://www.w3.org/2000/svg">
<mask id="mask0" mask-type="alpha" maskUnits="userSpaceOnUse" x="0" y="0" width="92" height="92">
<rect width="92" height="92" fill="#C4C4C4"/>
</mask>
<g mask="url(#mask0)">
<path d="M85.0598 24.5298C93.8621 39.7758 83.4648 62.2579 61.8367 74.7448C40.2087 87.2318 15.54 84.9951 6.73775 69.7491C-2.06454 54.5031 8.3328 32.0211 29.9608 19.5342C51.5889 7.0472 76.2575 9.28385 85.0598 24.5298Z" fill="url(#paint0_linear)"/>
<path d="M66.6742 49.7702L48.5037 33.5284L59.3376 29.1273C59.6642 28.9953 59.869 28.6697 59.8485 28.3195C59.8279 27.9694 59.5852 27.6701 59.2446 27.5774L15.6616 15.6802C15.3605 15.5982 15.0397 15.6925 14.8315 15.9238C14.6234 16.155 14.5642 16.4839 14.6785 16.7725L31.2826 58.6643C31.4118 58.9907 31.7153 59.2015 32.088 59.1826C32.4401 59.1654 32.742 58.9259 32.8391 58.5881L36.0484 47.3757L54.2213 63.6149C54.3785 63.756 54.5751 63.8249 54.7709 63.8249C54.9963 63.8249 55.2209 63.733 55.383 63.5526L66.7376 50.9273C67.0411 50.5902 67.0123 50.072 66.6742 49.7702ZM54.7067 61.8469L36.1677 45.2805C36.0138 45.1435 35.818 45.0705 35.6181 45.0705C35.5416 45.0705 35.4651 45.0812 35.3902 45.1025C35.1179 45.1812 34.9049 45.3936 34.8267 45.6659L31.9218 55.8147L16.8142 17.6951L56.4722 28.5213L46.6659 32.505C46.4034 32.6116 46.2142 32.8454 46.1657 33.1242C46.1171 33.4022 46.2167 33.6867 46.4265 33.8745L64.963 50.4434L54.7067 61.8469Z" fill="black"/>
<path d="M60.7181 45.552L48.1982 57.4546L54.2715 62.4619L65.7014 50.1202L60.7181 45.552Z" fill="black"/>
<path fill-rule="evenodd" clip-rule="evenodd" d="M20.6291 6.95458C20.2415 6.78415 20.0654 6.33178 20.2358 5.94417L22.0538 1.80951C22.2242 1.42191 22.6766 1.24585 23.0642 1.41627C23.4518 1.5867 23.6279 2.03908 23.4574 2.42668L21.6395 6.56134C21.469 6.94895 21.0167 7.12501 20.6291 6.95458Z" fill="black"/>
<path fill-rule="evenodd" clip-rule="evenodd" d="M11.0172 10.7594C10.7178 11.0588 10.2324 11.0588 9.93297 10.7594L4.82474 5.65133C4.52533 5.35193 4.52533 4.8665 4.82472 4.5671C5.12412 4.26769 5.60955 4.26768 5.90895 4.56708L11.0172 9.67516C11.3166 9.97456 11.3166 10.46 11.0172 10.7594Z" fill="black"/>
<path fill-rule="evenodd" clip-rule="evenodd" d="M8.00277 21.414C8.13284 21.8169 7.91163 22.249 7.50868 22.3791L1.20014 24.4154C0.797193 24.5455 0.365099 24.3243 0.23503 23.9213C0.104961 23.5184 0.326172 23.0863 0.729117 22.9562L7.03766 20.9199C7.44061 20.7898 7.8727 21.011 8.00277 21.414Z" fill="black"/>
</g>
<defs>
<linearGradient id="paint0_linear" x1="61.8367" y1="12.4583" x2="61.8367" y2="83.7583" gradientUnits="userSpaceOnUse">
<stop stop-color="#C6E3FF"/>
<stop offset="1" stop-color="#58E971"/>
<stop offset="1" stop-color="#58E9A3"/>
</linearGradient>
</defs>
</svg>
