<svg width="92" height="92" viewBox="0 0 92 92" fill="none" xmlns="http://www.w3.org/2000/svg">
<mask id="mask0" mask-type="alpha" maskUnits="userSpaceOnUse" x="0" y="0" width="92" height="92">
<rect width="92" height="92" fill="#C4C4C4"/>
</mask>
<g mask="url(#mask0)">
<path d="M85.0598 24.5298C93.8621 39.7758 83.4648 62.2579 61.8367 74.7448C40.2087 87.2318 15.54 84.9951 6.73775 69.7491C-2.06454 54.5031 8.3328 32.0211 29.9608 19.5342C51.5889 7.0472 76.2575 9.28385 85.0598 24.5298Z" fill="url(#paint0_linear)"/>
<path fill-rule="evenodd" clip-rule="evenodd" d="M43.3849 7.78187C28.7337 8.56318 17.4673 21.5133 18.2804 36.7615C18.5004 40.8866 19.5822 44.751 21.3333 48.1783L19.9679 48.8759C18.1203 45.2598 16.9808 41.1859 16.7493 36.8431C15.8938 20.801 27.7556 7.07983 43.3032 6.25071C58.8508 5.42159 72.1047 17.8034 72.9601 33.8455C73.8156 49.8877 61.9538 63.6089 46.4062 64.438C39.2545 64.8194 32.5812 62.4016 27.3818 58.1183L28.3568 56.9349C33.2767 60.9879 39.5774 63.2666 46.3245 62.9068C60.9757 62.1255 72.2421 49.1754 71.429 33.9272C70.6158 18.679 58.036 7.00056 43.3849 7.78187Z" fill="black"/>
<path fill-rule="evenodd" clip-rule="evenodd" d="M20.0433 47.5557L21.4493 48.1674L15.1604 62.6222L28.2339 56.9824L28.8412 58.3903L12.2075 65.566L20.0433 47.5557Z" fill="black"/>
<path fill-rule="evenodd" clip-rule="evenodd" d="M27.811 30.4827C27.811 30.0593 28.1543 29.7161 28.5777 29.7161H60.011C60.4345 29.7161 60.7777 30.0593 60.7777 30.4827C60.7777 30.9061 60.4345 31.2494 60.011 31.2494H28.5777C28.1543 31.2494 27.811 30.9061 27.811 30.4827Z" fill="black"/>
<path fill-rule="evenodd" clip-rule="evenodd" d="M27.811 35.0828C27.811 34.6594 28.1543 34.3162 28.5777 34.3162H60.011C60.4345 34.3162 60.7777 34.6594 60.7777 35.0828C60.7777 35.5062 60.4345 35.8495 60.011 35.8495H28.5777C28.1543 35.8495 27.811 35.5062 27.811 35.0828Z" fill="black"/>
<path fill-rule="evenodd" clip-rule="evenodd" d="M27.811 39.6827C27.811 39.2593 28.1543 38.916 28.5777 38.916H60.011C60.4345 38.916 60.7777 39.2593 60.7777 39.6827C60.7777 40.1061 60.4345 40.4493 60.011 40.4493H28.5777C28.1543 40.4493 27.811 40.1061 27.811 39.6827Z" fill="black"/>
</g>
<defs>
<linearGradient id="paint0_linear" x1="54.3614" y1="83.7581" x2="54.3614" y2="13.2248" gradientUnits="userSpaceOnUse">
<stop stop-color="#FDDD33"/>
<stop offset="1" stop-color="#E997EA"/>
</linearGradient>
</defs>
</svg>
